<?xml version="1.0" encoding="UTF-8"?>
<svg width="63px" height="33px" viewBox="0 0 63 33" version="1.1" xmlns="http://www.w3.org/2000/svg" xmlns:xlink="http://www.w3.org/1999/xlink">
    <!-- Generator: Sketch 43.2 (39069) - http://www.bohemiancoding.com/sketch -->
    <title>bird-2</title>
    <desc>Created with Sketch.</desc>
    <defs></defs>
    <g id="Page-1" stroke="none" stroke-width="1" fill="none" fill-rule="evenodd">
        <g id="proposition-3-1-square" transform="translate(-1279.000000, -324.000000)" fill="#7AC2CF">
            <path d="M1296.195,345.071251 C1293.2,344.748251 1288.411,346.439251 1287.232,347.512251 C1284.109,350.368251 1280.812,355.126251 1279,356.674251 C1280.627,350.084251 1279.282,344.958251 1285.912,342.739251 C1288.688,341.814251 1291.235,342.116251 1295.195,342.528251 C1294.794,341.630251 1293.821,340.062251 1293.584,339.817251 C1292.926,339.146251 1292.624,338.543251 1292.668,338.113251 C1292.68,337.970251 1292.425,337.592251 1292.276,337.427251 C1292.527,337.455251 1293.064,337.501251 1293.184,337.421251 C1294.323,336.665251 1295.213,338.571251 1295.932,338.765251 C1297.052,339.062251 1298.277,338.781251 1299.275,339.302251 C1299.451,339.391251 1299.638,339.481251 1299.825,339.576251 C1301.426,333.945251 1305.186,327.188251 1313.96,324.392251 C1318.444,322.954251 1334.23,325.836251 1341.712,327.144251 C1336.176,329.537251 1323.844,329.853251 1316.943,331.314251 C1309.481,332.889251 1307.192,338.067251 1305.985,345.303251 C1306.299,345.800251 1306.601,346.341251 1306.916,346.935251 C1307.571,347.428251 1308.008,348.122251 1308.673,348.610251 C1309.126,348.945251 1309.806,349.081251 1310.267,349.412251 C1310.702,349.901251 1310.586,350.291251 1310.093,350.616251 C1310.487,350.999251 1310.213,351.280251 1309.635,351.505251 C1309.745,352.074251 1309.509,352.282251 1309.11,352.329251 C1309.09,353.208251 1308.691,353.328251 1308.067,352.687251 L1303.386,349.620251 C1299.188,348.324251 1297.817,346.539251 1296.195,345.071251" id="bird-2"></path>
        </g>
    </g>
</svg>