<?xml version="1.0" encoding="UTF-8"?>
<svg width="59px" height="30px" viewBox="0 0 59 30" version="1.1" xmlns="http://www.w3.org/2000/svg" xmlns:xlink="http://www.w3.org/1999/xlink">
    <!-- Generator: Sketch 43.2 (39069) - http://www.bohemiancoding.com/sketch -->
    <title>bird-1</title>
    <desc>Created with Sketch.</desc>
    <defs></defs>
    <g id="Page-1" stroke="none" stroke-width="1" fill="none" fill-rule="evenodd">
        <g id="proposition-3-1-square" transform="translate(-195.000000, -255.000000)" fill="#7AC2CF">
            <path d="M211.189,274.415 C208.432,274.119 204.024,275.675 202.938,276.663 C200.063,279.292 197.028,283.671 195.361,285.096 C196.859,279.03 195.62,274.312 201.723,272.269 C204.278,271.418 206.623,271.696 210.268,272.075 C209.899,271.249 209.004,269.805 208.785,269.579 C208.18,268.962 207.902,268.407 207.942,268.011 C207.954,267.879 207.718,267.532 207.582,267.38 C207.812,267.406 208.307,267.448 208.417,267.374 C209.465,266.678 210.285,268.432 210.946,268.611 C211.978,268.885 213.105,268.626 214.024,269.106 C214.186,269.187 214.358,269.271 214.53,269.358 C216.004,264.174 219.465,257.955 227.541,255.381 C231.669,254.058 246.199,256.71 253.086,257.915 C247.991,260.117 236.639,260.408 230.287,261.753 C223.418,263.203 221.311,267.969 220.2,274.63 C220.489,275.086 220.767,275.584 221.057,276.132 C221.66,276.585 222.062,277.224 222.674,277.673 C223.091,277.982 223.717,278.107 224.141,278.411 C224.542,278.862 224.436,279.221 223.981,279.52 C224.344,279.872 224.092,280.131 223.56,280.338 C223.661,280.862 223.444,281.053 223.077,281.097 C223.058,281.905 222.691,282.016 222.116,281.426 L217.807,278.603 C213.944,277.411 212.682,275.767 211.189,274.415" id="bird-1" transform="translate(224.223500, 270.058088) scale(-1, 1) translate(-224.223500, -270.058088) "></path>
        </g>
    </g>
</svg>