<?xml version="1.0" encoding="UTF-8"?>
<svg width="261px" height="204px" viewBox="0 0 261 204" version="1.1" xmlns="http://www.w3.org/2000/svg" xmlns:xlink="http://www.w3.org/1999/xlink">
    <!-- Generator: Sketch 43.2 (39069) - http://www.bohemiancoding.com/sketch -->
    <title>illustration-3</title>
    <desc>Created with Sketch.</desc>
    <defs>
        <path d="M26.5052335,56.2628056 C41.0343001,56.2628056 52.8124358,44.5279175 52.8124358,30.0521995 C52.8124358,22.9184642 49.9520126,16.4503635 45.3115644,11.7243285 C43.5567406,9.93713932 48.7229426,2.578679 46.5174443,1.3479447 C42.7204796,-0.770875664 31.1666513,3.84159333 26.5052335,3.84159333 C22.866859,3.84159333 19.4009963,4.57749252 16.2494084,5.90804861 C14.6528081,6.58211084 10.2849937,5.76239 10.2849937,5.76239 C10.2849937,5.76239 10.084164,9.5491643 9.32165458,10.2050904 C3.73426591,15.0114757 0.198031163,22.120388 0.198031163,30.0521995 C0.198031163,44.5279175 11.9761668,56.2628056 26.5052335,56.2628056 Z" id="path-1"></path>
        <rect id="path-3" x="0.136025976" y="10.2434182" width="17.9542085" height="7.06449338" rx="1.11999991"></rect>
        <rect id="path-4" x="19.0763466" y="6.71126871" width="31.9809339" height="12.5836288" rx="1.11999991"></rect>
        <rect id="path-5" x="46.8492629" y="3.35563435" width="26.9313128" height="19.2948975" rx="1.11999991"></rect>
        <ellipse id="path-6" cx="104.078303" cy="12.5836288" rx="10.9408458" ry="10.9058116"></ellipse>
        <rect id="path-7" x="70.4141616" y="0" width="35.347348" height="25.1672577" rx="1.11999991"></rect>
        <rect id="path-8" x="105.76151" y="0" width="1.68320705" height="25.1672577" rx="0.841603525"></rect>
    </defs>
    <g id="Page-1" stroke="none" stroke-width="1" fill="none" fill-rule="evenodd">
        <g id="proposition-3-1-square" transform="translate(-953.000000, -1969.000000)">
            <g id="Group-9" transform="translate(93.000000, 1969.000000)">
                <g id="Group-8-Copy-2" transform="translate(862.000000, 0.000000)">
                    <g id="illustration-3">
                        <g id="boat" transform="translate(129.500000, 101.500000) scale(-1, 1) translate(-129.500000, -101.500000) ">
                            <polyline id="Line" stroke="#58768F" stroke-width="2" stroke-linecap="square" points="50 198 145.222656 203 259 198"></polyline>
                            <path d="M147.580312,174.489927 C147.594227,174.533395 147.264767,173.730806 146.859899,172.425422 C146.465356,171.103457 145.943786,169.168011 145.437926,166.693921 C145.294293,166.076854 145.192851,165.422594 145.061786,164.738309 C144.941043,164.053576 144.792472,163.338819 144.679361,162.590004 C144.461666,161.092375 144.173052,159.47689 143.980044,157.742651 C143.872768,156.876428 143.761901,155.982422 143.647443,155.061976 C143.544206,154.141082 143.462514,153.192404 143.365113,152.219528 C143.277137,151.246203 143.160884,150.249128 143.089067,149.22651 C143.016352,148.203444 142.941842,147.157523 142.865986,146.088748 C142.568844,141.814545 142.38616,137.181395 142.294593,132.282508 C142.211106,127.384068 142.21335,122.218996 142.345763,116.881843 C142.378529,115.547331 142.381671,114.20072 142.440022,112.846938 C142.493436,111.492709 142.54685,110.129068 142.601161,108.756914 C142.655024,107.384759 142.709335,106.004539 142.763647,104.617148 C142.831873,103.206903 142.901894,101.8464 143.011415,100.428536 C143.411794,94.8001038 144.12278,89.1376137 145.039792,83.5002185 C145.98149,77.8699934 147.139985,72.2783068 148.500016,66.8291236 C149.869025,61.382181 151.428797,56.0759492 153.136242,51.007223 C156.541706,40.8652892 160.584994,31.6998168 164.608532,24.1457969 C166.614915,20.3649779 168.593918,16.9731302 170.47103,14.0446424 C171.383104,12.5635938 172.313581,11.2263929 173.146207,9.97254305 C173.991851,8.72765563 174.812807,7.61406843 175.530526,6.5927947 C177.023868,4.59057837 178.209294,3.02617881 179.063914,1.99549448 C179.902825,0.95315894 180.349885,0.397037528 180.349885,0.397037528 L181.232334,1.11986093 C181.232334,1.11986093 180.7947,1.67508609 179.974193,2.71652539 C179.138424,3.74586534 177.980378,5.30802428 176.52115,7.30620751 C175.820487,8.32613687 175.018382,9.43703532 174.193387,10.679234 C173.381407,11.929947 172.473373,13.2631148 171.58464,14.7405784 C169.754657,17.6605519 167.828171,21.0420927 165.878793,24.809468 C161.968366,32.3361523 158.0539,41.4621898 154.781745,51.5507969 C153.140282,56.5921876 151.648736,61.867947 150.347504,67.2794879 C149.05525,72.6932693 147.964981,78.2446247 147.089713,83.8273488 C146.24003,89.4100728 145.593679,95.0362649 145.257935,100.565662 C145.165471,101.935576 145.106222,103.357024 145.055053,104.714391 C145.015105,106.095508 144.975156,107.470351 144.935657,108.836232 C144.895709,110.202561 144.856659,111.559927 144.817159,112.908331 C144.773172,114.256287 144.783944,115.594832 144.764643,116.922174 C144.687889,122.231543 144.73861,127.362558 144.871022,132.222011 C145.011963,137.081015 145.24043,141.670249 145.577969,145.891126 C145.6637,146.946457 145.747636,147.979382 145.829777,148.989004 C145.91102,149.999075 146.035801,150.979121 146.132754,151.938106 C146.238235,152.895746 146.328455,153.830532 146.439322,154.735742 C146.560962,155.638711 146.679011,156.515689 146.793469,157.365779 C147.000391,159.069993 147.299329,160.642459 147.526898,162.106031 C147.644947,162.837369 147.79666,163.528375 147.920544,164.193839 C148.054752,164.856614 148.160233,165.496086 148.304764,166.088057 C148.819601,168.478797 149.335785,170.311174 149.71417,171.536344 C150.115895,172.769132 150.334937,173.279545 150.353788,173.319876 L147.580312,174.489927" id="Fill-7" fill="#476B87" transform="translate(161.735150, 87.444323) scale(-1, 1) translate(-161.735150, -87.444323) "></path>
                            <path d="M217.398694,146.151934 C209.503331,141.771077 203.055147,135.82134 190.947278,135.293898 C170.768094,134.415576 162.344428,142.122854 162.168477,146.151934 C161.816574,154.210541 181.467905,167.176998 181.467905,167.176998 C181.467905,167.176998 145.497097,157.536962 146.728755,129.332062 C147.960863,101.127161 157.968539,57.1563753 249.221701,4.6120883 C252.656614,1.94166131 208.987147,61.0097903 217.398694,146.151934 Z" id="Fill-3-Copy" stroke="#476B87" stroke-width="1.5999999" fill="#FFFFFF" transform="translate(198.056250, 85.851046) scale(-1, 1) translate(-198.056250, -85.851046) "></path>
                            <path d="M178.21842,143.013276 C178.21842,143.013276 150.143424,137.754097 121.012271,156.670291 C121.892477,136.523998 112.952627,63.469989 147.527495,12.4945828 C145.851021,14.9664327 145.756313,20.568426 145.238783,23.5529294 C144.49099,27.8634305 143.896257,32.1990265 143.402067,36.5449294 C142.40516,45.3075386 141.822995,54.1086865 141.274493,62.9084901 C140.070664,82.2365099 145.681803,100.701444 155.150852,117.429898 C158.79421,123.866746 163.063272,130.223828 168.244857,135.537678 C170.649823,138.003702 174.61905,142.33885 178.21842,143.013276" id="Fill-4" stroke="#476B87" stroke-width="1.5999999" fill="#FFFFFF" transform="translate(149.403152, 84.582437) scale(-1, 1) translate(-149.403152, -84.582437) "></path>
                            <g id="Group-11" transform="translate(90.544872, 135.466535) scale(-1, 1) translate(-90.544872, -135.466535) translate(0.000000, 83.118110)">
                                <g id="Group-2" transform="translate(13.648804, 19.108323)">
                                    <mask id="mask-2" fill="white">
                                        <use xlink:href="#path-1"></use>
                                    </mask>
                                    <g id="Mask">
                                        <use fill="#FFFFFF" fill-rule="evenodd" xlink:href="#path-1"></use>
                                        <path stroke="#476B87" stroke-width="2.01599993" d="M26.5052335,57.2708056 C41.5901748,57.2708056 53.8204358,45.0854523 53.8204358,30.0521995 C53.8204358,22.8401236 50.9916381,16.0704302 46.0308109,11.0181073 C45.7652952,10.7476945 45.9975907,9.54702998 46.91827,6.98499809 C46.9374055,6.93175893 46.9374055,6.93175893 46.9565776,6.87844405 C47.6057007,5.07343361 47.8378846,4.35226925 47.9903765,3.49943065 C48.2409982,2.09778372 48.0202294,1.03222002 47.0086359,0.46772044 C44.9595242,-0.675745435 41.7386841,-0.371195777 35.9089787,0.977889183 C35.4543325,1.08310141 34.9849867,1.19398696 34.3907444,1.33605939 C29.2609012,2.56251077 27.939132,2.83359337 26.5052335,2.83359337 C22.8003197,2.83359337 19.1968741,3.56951829 15.8573532,4.97941701 C15.4787751,5.13924737 14.6648171,5.20066841 13.6065919,5.14640077 C13.0204911,5.1163445 12.3887587,5.05398881 11.7444677,4.96888925 C11.4147348,4.92533731 11.1032597,4.87866725 10.8202567,4.8320897 C10.6521414,4.80442074 10.5323402,4.78321245 10.4709221,4.77168593 L9.33938101,4.55932621 L9.27840831,5.70900625 C9.27146992,5.8398341 9.25535496,6.07660011 9.22834889,6.38313676 C9.18337307,6.89364188 9.12416157,7.40341117 9.04964803,7.87432178 C8.91238458,8.7417992 8.71020318,9.40143809 8.66430225,9.44092301 C2.69100869,14.5792715 -0.8099688,22.0337329 -0.8099688,30.0521995 C-0.8099688,45.0854523 11.4202922,57.2708056 26.5052335,57.2708056 Z"></path>
                                    </g>
                                    <path d="M51.6928805,13.3550082 C51.6928805,13.3550082 9.48670352,13.3668186 8.36677368,26.913542 C7.24684383,40.4602653 8.36677368,60.7736201 8.36677368,60.7736201 C8.36677368,60.7736201 -18.9340412,34.6212583 5.01926594,8.69593317 C16.9469608,-4.21374002 39.2176133,-10.7657433 47.8807292,-6.40488523 C56.5438451,-2.04402713 51.6928805,13.3550082 51.6928805,13.3550082 Z" id="Path-4" stroke="#476B87" stroke-width="2.01599993" fill="#FFFFFF" mask="url(#mask-2)"></path>
                                    <ellipse id="Oval-2-Copy" fill="#476B87" mask="url(#mask-2)" cx="46.741543" cy="34.0846004" rx="3.37271825" ry="3.36033412"></ellipse>
                                </g>
                                <g id="spy-copy" transform="translate(121.698309, 45.726412) rotate(-5.000000) translate(-121.698309, -45.726412) translate(64.006001, 32.939011)">
                                    <g id="Rectangle-6-Copy-4">
                                        <use fill="#FFFFFF" fill-rule="evenodd" xlink:href="#path-3"></use>
                                        <rect stroke="#476B87" stroke-width="1.67999987" x="-0.70397396" y="9.40341826" width="19.6342084" height="8.74449325" rx="1.11999991"></rect>
                                    </g>
                                    <g id="Rectangle-6">
                                        <use fill="#FFFFFF" fill-rule="evenodd" xlink:href="#path-4"></use>
                                        <rect stroke="#476B87" stroke-width="1.67999987" x="18.2363466" y="5.87126877" width="33.6609338" height="14.2636287" rx="1.11999991"></rect>
                                    </g>
                                    <g id="Rectangle-6-Copy">
                                        <use fill="#FFFFFF" fill-rule="evenodd" xlink:href="#path-5"></use>
                                        <rect stroke="#476B87" stroke-width="1.67999987" x="46.009263" y="2.51563442" width="28.6113127" height="20.9748974" rx="1.11999991"></rect>
                                    </g>
                                    <g id="Oval">
                                        <use fill="#FFFFFF" fill-rule="evenodd" xlink:href="#path-6"></use>
                                        <ellipse stroke="#476B87" stroke-width="1.67999987" cx="104.078303" cy="12.5836288" rx="11.7808458" ry="11.7458116"></ellipse>
                                    </g>
                                    <g id="Rectangle-6-Copy-2">
                                        <use fill="#FFFFFF" fill-rule="evenodd" xlink:href="#path-7"></use>
                                        <rect stroke="#476B87" stroke-width="1.67999987" x="69.5741617" y="-0.839999936" width="37.0273479" height="26.8472575" rx="1.11999991"></rect>
                                    </g>
                                    <g id="Rectangle-6-Copy-3">
                                        <use fill="#FFFFFF" fill-rule="evenodd" xlink:href="#path-8"></use>
                                        <rect stroke="#476B87" stroke-width="1.67999987" x="104.92151" y="-0.839999936" width="3.36320692" height="26.8472575" rx="1.11999991"></rect>
                                    </g>
                                </g>
                                <polygon id="Rectangle-2" stroke="#476B87" stroke-width="1.67999987" fill="#FFFFFF" transform="translate(37.757458, 27.054018) rotate(-13.000000) translate(-37.757458, -27.054018) " points="9.28702665 17.0803355 33.0301033 17.7994704 38.0607742 23.3192587 42.6974658 17.7994704 66.2278891 18.3388216 60.0649007 37.0277009 12.2125905 35.8894046"></polygon>
                                <g id="body" transform="translate(15.195923, 73.972451)" stroke="#476B87">
                                    <path d="M13.6827697,0.974065666 L0.400282488,29.5562451 L48.1760606,26.3232484 L38.0667596,0.848345366 C38.0667596,0.848345366 28.4399047,2.8728721 24.2881715,2.89427783 C20.1364384,2.91568357 13.6827697,0.974065666 13.6827697,0.974065666 Z" id="Mask" stroke-width="2.01599993" fill="#FFFFFF"></path>
                                    <path d="M8.71197185,12.421902 L41.9728981,10.7440848" id="Line" stroke-width="1.11999991" stroke-linecap="square"></path>
                                    <path d="M7.0287648,15.7775363 L43.0950361,13.5404467" id="Line-Copy" stroke-width="1.11999991" stroke-linecap="square"></path>
                                    <g id="Group-10" transform="translate(24.780756, 22.139428) rotate(-1.000000) translate(-24.780756, -22.139428) translate(3.100671, 19.622702)" stroke-width="1.11999991" stroke-linecap="square">
                                        <path d="M2.58971704,1.67781718 L41.4354726,0" id="Line-Copy-3"></path>
                                        <path d="M0,5.03345153 L43.1619506,2.79636196" id="Line-Copy-2"></path>
                                    </g>
                                </g>
                            </g>
                            <path d="M152.960694,148.532801 L161.174296,176.72605 C161.174296,176.72605 229.867546,180.434273 225.827849,180.453094 C221.788152,180.472363 165.137238,160.574779 152.960694,148.532801" id="Fill-8-Copy" stroke="#476B87" stroke-width="1.5999999" fill="#FFFFFF" transform="translate(189.479990, 164.492954) scale(-1, 1) translate(-189.479990, -164.492954) "></path>
                            <path d="M112.430838,162.133815 C112.430838,162.133815 112.95555,195.329468 173.161397,202.178141 C219.701848,207.472274 226.522203,179.778682 226.522203,179.778682 C226.522203,179.778682 152.942265,186.141141 112.430838,162.133815" id="Fill-9" stroke="#476B87" stroke-width="1.5999999" fill="#FFFFFF" transform="translate(169.476520, 182.492318) scale(-1, 1) translate(-169.476520, -182.492318) "></path>
                        </g>
                    </g>
                </g>
            </g>
        </g>
    </g>
</svg>
