<?xml version="1.0" encoding="UTF-8"?>
<svg width="244px" height="124px" viewBox="0 0 244 124" version="1.1" xmlns="http://www.w3.org/2000/svg" xmlns:xlink="http://www.w3.org/1999/xlink">
    <!-- Generator: Sketch 43.2 (39069) - http://www.bohemiancoding.com/sketch -->
    <title>illustration-2</title>
    <desc>Created with Sketch.</desc>
    <defs>
        <polygon id="path-1" points="52.8879828 74.2603579 93.7978524 74.4387068 103.251085 82.3446083 52.514789 85.595"></polygon>
        <polygon id="path-2" points="1.16693237 74.2603579 42.076802 74.4387068 51.5300345 82.3446083 0.793738649 85.595"></polygon>
        <path d="M52.0785314,70.3977962 C70.2108066,70.3977962 84.9099199,55.7147343 84.9099199,37.6022594 C84.9099199,28.676305 81.3401117,20.5832134 75.5488324,14.6698495 C73.3588122,12.433662 79.8062323,3.22652447 77.0537705,1.68659091 C72.3151585,-0.964543935 57.8959808,4.80672269 52.0785314,4.80672269 C47.53784,4.80672269 43.2124434,5.72750295 39.2792617,7.39233668 C37.2867044,8.2357446 31.8356721,7.21008403 31.8356721,7.21008403 C31.8356721,7.21008403 31.5850367,11.9482154 30.6334249,12.7689309 C23.6603639,18.7828317 19.2471429,27.6777269 19.2471429,37.6022594 C19.2471429,55.7147343 33.9462562,70.3977962 52.0785314,70.3977962 Z" id="path-3"></path>
        <polygon id="path-5" points="24.0983944 69.1193753 65.0082641 69.2977242 74.4614965 77.2036257 23.7252007 80.4540174"></polygon>
        <path d="M33.0785314,70.3977962 C51.2108066,70.3977962 65.9099199,55.7147343 65.9099199,37.6022594 C65.9099199,28.676305 62.3401117,20.5832134 56.5488324,14.6698495 C54.3588122,12.433662 60.8062323,3.22652447 58.0537705,1.68659091 C53.3151585,-0.964543935 38.8959808,4.80672269 33.0785314,4.80672269 C28.53784,4.80672269 24.2124434,5.72750295 20.2792617,7.39233668 C18.2867044,8.2357446 12.8356721,7.21008403 12.8356721,7.21008403 C12.8356721,7.21008403 12.5850367,11.9482154 11.6334249,12.7689309 C4.66036386,18.7828317 0.247142892,27.6777269 0.247142892,37.6022594 C0.247142892,55.7147343 14.9462562,70.3977962 33.0785314,70.3977962 Z" id="path-6"></path>
        <rect id="path-8" x="19" y="4" width="13" height="24" rx="6"></rect>
        <polygon id="path-9" points="8.90147874 25.1836742 37.0474294 24.3059167 46.5006619 31.5143192 8.52828502 35.5183163"></polygon>
    </defs>
    <g id="Page-1" stroke="none" stroke-width="1" fill="none" fill-rule="evenodd">
        <g id="proposition-3-1-square" transform="translate(-534.000000, -2040.000000)">
            <g id="Group-9" transform="translate(93.000000, 1969.000000)">
                <g id="Group-8-Copy" transform="translate(441.000000, 49.000000)">
                    <g id="illustration-2">
                        <g id="Group-11">
                            <g id="Group-2" transform="translate(0.033708, 23.908936)">
                                <g id="Rectangle-7" transform="translate(77.882937, 79.927679) rotate(-3.000000) translate(-77.882937, -79.927679) ">
                                    <use fill="#FFFFFF" fill-rule="evenodd" xlink:href="#path-1"></use>
                                    <path stroke="#476B87" stroke-width="1.68000004" d="M53.700664,75.1039088 L93.4913064,75.2773784 L101.100038,81.6406919 L53.3847931,84.6975417 L53.700664,75.1039088 Z"></path>
                                </g>
                                <g id="Rectangle-7-Copy-2" transform="translate(26.161887, 79.927679) scale(-1, 1) rotate(-7.000000) translate(-26.161887, -79.927679) ">
                                    <use fill="#FFFFFF" fill-rule="evenodd" xlink:href="#path-2"></use>
                                    <path stroke="#476B87" stroke-width="1.68000004" d="M1.97961361,75.1039088 L41.770256,75.2773784 L49.3789875,81.6406919 L1.66374272,84.6975417 L1.97961361,75.1039088 Z"></path>
                                </g>
                                <path d="M43.0449438,104.670896 L38.2359551,117.889384" id="Line" stroke="#476B87" stroke-width="2.4000001" stroke-linecap="square"></path>
                                <path d="M62.2808989,102.267535 L69.494382,116.687703" id="Line-Copy-4" stroke="#476B87" stroke-width="2.4000001" stroke-linecap="square"></path>
                                <mask id="mask-4" fill="white">
                                    <use xlink:href="#path-3"></use>
                                </mask>
                                <g id="Mask">
                                    <use fill="#FFFFFF" fill-rule="evenodd" xlink:href="#path-3"></use>
                                    <path stroke="#476B87" stroke-width="2.52000006" d="M52.0785314,71.6577962 C70.9063774,71.6577962 86.1699199,56.4109214 86.1699199,37.6022594 C86.1699199,28.579304 82.6398972,20.1096103 76.4490311,13.788236 C76.1166504,13.4488484 76.4067546,11.9455055 77.5562482,8.73845497 C77.5801294,8.67183994 77.5801294,8.67183994 77.6040564,8.60513044 C78.4140785,6.34687707 78.7038196,5.44460979 78.8940736,4.37782437 C79.206683,2.62497318 78.9315014,1.29334134 77.6689712,0.586987281 C75.1103296,-0.844508682 71.0900119,-0.463379311 63.8132528,1.22493687 C63.2458413,1.35658475 62.6600874,1.49533071 61.9184628,1.67309867 C55.5170384,3.20752468 53.8674175,3.54672266 52.0785314,3.54672266 C47.4541158,3.54672266 42.9563701,4.4676673 38.7881163,6.23200213 C38.3164482,6.4316494 37.301269,6.5084529 35.9812965,6.44058713 C35.2499965,6.40298767 34.4617277,6.32497946 33.6577796,6.21851703 C33.2463292,6.16403091 32.8576608,6.10564376 32.5045235,6.0473728 C32.2947541,6.01275887 32.1452786,5.98622884 32.0686639,5.9718131 L30.6534973,5.70553683 L30.5774312,7.14352621 C30.5687695,7.30727083 30.5486546,7.60357052 30.5149462,7.98717428 C30.4588082,8.62602735 30.3849011,9.26396267 30.291891,9.85328988 C30.1205144,10.93916 29.8679813,11.7652102 29.8105137,11.8147731 C22.3560123,18.2438909 17.9871429,27.5703999 17.9871429,37.6022594 C17.9871429,56.4109214 33.2506854,71.6577962 52.0785314,71.6577962 Z"></path>
                                </g>
                                <path d="M52,59 C52,59 57.4641031,62.9650877 62.9282062,59" id="Path-12" stroke="#476B87" stroke-width="2" stroke-linecap="round" mask="url(#mask-4)"></path>
                                <path d="M83.5127149,16.7102073 C83.5127149,16.7102073 26.6617163,14.4534769 25.2640439,31.4035642 C25.0174115,34.394566 24.9740736,37.3899533 25.0699634,40.2950448 C25.0994312,41.1878049 21.9884274,41.9108264 22.0423329,42.7837839 C22.1141494,43.9467987 25.6388225,45.2572952 25.4671185,46.367503 C25.2640439,47.6805479 26.6291815,53.8811253 26.6291815,53.8811253 C26.6291815,53.8811253 -4.62968342,43.3192099 25.2640439,10.8806257 C40.1498071,-5.27236436 67.9435815,-13.4704375 78.7551501,-8.01399433 C89.5667187,-2.55755119 83.5127149,16.7102073 83.5127149,16.7102073 Z" id="Path-4" stroke="#476B87" stroke-width="2.52000006" fill="#FFFFFF" mask="url(#mask-4)"></path>
                                <ellipse id="Oval-2-Copy" fill="#476B87" mask="url(#mask-4)" cx="45.2091524" cy="46.204556" rx="4.20915237" ry="4.20455599"></ellipse>
                                <ellipse id="Oval-2-Copy-2" fill="#476B87" mask="url(#mask-4)" cx="66.2091524" cy="46.204556" rx="4.20915237" ry="4.20455599"></ellipse>
                            </g>
                            <g id="body" transform="translate(20.964512, 93.556662)">
                                <path d="M17.0760965,0.218781671 L0.499552545,35.9817057 L60.1237236,31.9364782 L47.507316,0.0614764673 C47.507316,0.0614764673 35.493001,2.59462815 30.3116381,2.62141167 C25.1302752,2.6481952 17.0760965,0.218781671 17.0760965,0.218781671 Z" id="Mask" stroke="#476B87" stroke-width="2.52000006" fill="#FFFFFF"></path>
                                <path d="M38.5270751,22.6398105 L37.3408728,21.4536082 C32.9350805,17.5561372 30.0542523,14.92981 30.0542523,11.7095906 C30.0542523,9.08326341 32.087708,7.04980771 34.7140352,7.04980771 C36.1547555,7.04980771 37.5948634,7.72763762 38.5271262,8.82944295 C39.4574836,7.72763762 40.8994628,7.04980771 42.3402171,7.04980771 C44.9665443,7.04980771 47,9.08326341 47,11.7095906 C47,14.9292997 44.1191719,17.5561372 39.7133795,21.4529277 L38.5270751,22.6398105 Z" id="Shape" fill="#EB2B5E" fill-rule="nonzero"></path>
                            </g>
                            <g id="Group-14" transform="translate(94.500000, 76.500000) scale(-1, 1) rotate(-126.000000) translate(-94.500000, -76.500000) translate(86.000000, 71.000000)" stroke="#476B87" stroke-linecap="round">
                                <path d="M0.195032775,4.74606709 C0.195032775,4.74606709 7.30316613,4.26924253 10.0573679,10.7971286" id="Path-11"></path>
                                <path d="M0.223716736,0.92534249 C0.223716736,0.92534249 11.614915,0.161203326 16.028684,10.6225214" id="Path-11-Copy"></path>
                            </g>
                        </g>
                        <path d="M14,144 L243,144" id="Line" stroke="#58768F" stroke-width="2" stroke-linecap="square"></path>
                        <g id="Group-11" transform="translate(187.000000, 73.000000) scale(-1, 1) translate(-187.000000, -73.000000) translate(136.000000, 2.000000)">
                            <g id="Group-2" transform="translate(17.033708, 23.908936)">
                                <g id="Rectangle-7" transform="translate(49.093349, 74.786696) rotate(57.000000) translate(-49.093349, -74.786696) ">
                                    <use fill="#FFFFFF" fill-rule="evenodd" xlink:href="#path-5"></use>
                                    <path stroke="#476B87" stroke-width="1.68000004" d="M24.9110756,69.9629262 L64.7017181,70.1363958 L72.3104495,76.4997092 L24.5952048,79.5565591 L24.9110756,69.9629262 Z"></path>
                                </g>
                                <path d="M24.0449438,104.670896 L19.2359551,117.889384" id="Line" stroke="#476B87" stroke-width="2.4000001" stroke-linecap="square"></path>
                                <path d="M43.2808989,102.267535 L50.494382,116.687703" id="Line-Copy-4" stroke="#476B87" stroke-width="2.4000001" stroke-linecap="square"></path>
                                <mask id="mask-7" fill="white">
                                    <use xlink:href="#path-6"></use>
                                </mask>
                                <g id="Mask">
                                    <use fill="#FFFFFF" fill-rule="evenodd" xlink:href="#path-6"></use>
                                    <path stroke="#476B87" stroke-width="2.52000006" d="M33.0785314,71.6577962 C51.9063774,71.6577962 67.1699199,56.4109214 67.1699199,37.6022594 C67.1699199,28.579304 63.6398972,20.1096103 57.4490311,13.788236 C57.1166504,13.4488484 57.4067546,11.9455055 58.5562482,8.73845497 C58.5801294,8.67183994 58.5801294,8.67183994 58.6040564,8.60513044 C59.4140785,6.34687707 59.7038196,5.44460979 59.8940736,4.37782437 C60.206683,2.62497318 59.9315014,1.29334134 58.6689712,0.586987281 C56.1103296,-0.844508682 52.0900119,-0.463379311 44.8132528,1.22493687 C44.2458413,1.35658475 43.6600874,1.49533071 42.9184628,1.67309867 C36.5170384,3.20752468 34.8674175,3.54672266 33.0785314,3.54672266 C28.4541158,3.54672266 23.9563701,4.4676673 19.7881163,6.23200213 C19.3164482,6.4316494 18.301269,6.5084529 16.9812965,6.44058713 C16.2499965,6.40298767 15.4617277,6.32497946 14.6577796,6.21851703 C14.2463292,6.16403091 13.8576608,6.10564376 13.5045235,6.0473728 C13.2947541,6.01275887 13.1452786,5.98622884 13.0686639,5.9718131 L11.6534973,5.70553683 L11.5774312,7.14352621 C11.5687695,7.30727083 11.5486546,7.60357052 11.5149462,7.98717428 C11.4588082,8.62602735 11.3849011,9.26396267 11.291891,9.85328988 C11.1205144,10.93916 10.8679813,11.7652102 10.8105137,11.8147731 C3.35601234,18.2438909 -1.01285714,27.5703999 -1.01285714,37.6022594 C-1.01285714,56.4109214 14.2506854,71.6577962 33.0785314,71.6577962 Z"></path>
                                </g>
                                <path d="M51.6934145,57.0910642 C51.6934145,57.0910642 55.3298533,60.1377894 58.9662921,60.1377894" id="Path-12" stroke="#476B87" stroke-width="2" stroke-linecap="round" mask="url(#mask-7)"></path>
                                <path d="M64.5127149,16.7102073 C64.5127149,16.7102073 11.839406,16.7249849 10.4417335,33.6750722 C9.0440611,50.6251596 10.4417335,76.0418694 10.4417335,76.0418694 C10.4417335,76.0418694 -23.6296834,43.3192099 6.26404389,10.8806257 C21.1498071,-5.27236436 48.9435815,-13.4704375 59.7551501,-8.01399433 C70.5667187,-2.55755119 64.5127149,16.7102073 64.5127149,16.7102073 Z" id="Path-4" stroke="#476B87" stroke-width="2.52000006" fill="#FFFFFF" mask="url(#mask-7)"></path>
                                <ellipse id="Oval-2-Copy" fill="#476B87" mask="url(#mask-7)" cx="58.3334456" cy="42.6477266" rx="4.20915237" ry="4.20455599"></ellipse>
                            </g>
                            <g id="body" transform="translate(18.964512, 61.556662)">
                                <path d="M17.0760965,32.2187817 L0.499552545,67.9817057 L60.1237236,63.9364782 L47.507316,32.0614765 C47.507316,32.0614765 35.493001,34.5946281 30.3116381,34.6214117 C25.1302752,34.6481952 17.0760965,32.2187817 17.0760965,32.2187817 Z" id="Mask" stroke="#476B87" stroke-width="2.52000006" fill="#FFFFFF"></path>
                                <g id="Rectangle-5" transform="translate(25.500000, 16.000000) rotate(-14.000000) translate(-25.500000, -16.000000) ">
                                    <use fill="#FFFFFF" fill-rule="evenodd" xlink:href="#path-8"></use>
                                    <rect stroke="#476B87" stroke-width="2" x="20" y="5" width="11" height="22" rx="5.5"></rect>
                                </g>
                                <path d="M19.0354883,13.4433376 L15.0354883,0.4433376" id="Line" stroke="#476B87" stroke-width="2" stroke-linecap="round"></path>
                                <g id="Rectangle-7-Copy" transform="translate(27.514473, 29.912117) scale(-1, 1) rotate(-56.000000) translate(-27.514473, -29.912117) ">
                                    <use fill="#FFFFFF" fill-rule="evenodd" xlink:href="#path-9"></use>
                                    <path stroke="#476B87" stroke-width="1.68000004" d="M9.71259176,25.9987873 L36.7753661,25.1548097 L44.3105061,30.9006032 L9.40266329,34.5814605 L9.71259176,25.9987873 Z"></path>
                                </g>
                            </g>
                            <g id="Group-14" transform="translate(92.500000, 76.500000) scale(-1, 1) rotate(-126.000000) translate(-92.500000, -76.500000) translate(84.000000, 71.000000)" stroke="#476B87" stroke-linecap="round">
                                <path d="M0.195032775,4.74606709 C0.195032775,4.74606709 7.30316613,4.26924253 10.0573679,10.7971286" id="Path-11"></path>
                                <path d="M0.223716736,0.92534249 C0.223716736,0.92534249 11.614915,0.161203326 16.028684,10.6225214" id="Path-11-Copy"></path>
                            </g>
                        </g>
                    </g>
                </g>
            </g>
        </g>
    </g>
</svg>
