<?xml version="1.0" encoding="UTF-8"?>
<svg width="208px" height="113px" viewBox="0 0 208 113" version="1.1" xmlns="http://www.w3.org/2000/svg" xmlns:xlink="http://www.w3.org/1999/xlink">
    <!-- Generator: Sketch 43.2 (39069) - http://www.bohemiancoding.com/sketch -->
    <title>illustration-1</title>
    <desc>Created with Sketch.</desc>
    <defs>
        <path d="M10.4595638,71.5106269 C10.6770288,71.8235712 11.0375236,71.823462 11.2470744,71.5106269 C11.2470744,71.5106269 13.3040685,68.9442443 13.3040685,65.0794702 C13.3040685,61.2146961 11.2470744,58.6483135 11.2470744,58.6483135 C11.0296093,58.3353692 10.6691145,58.3354784 10.4595638,58.6483135 C10.4595638,58.6483135 8.40256959,61.2146961 8.40256959,65.0794702 C8.40256959,68.9442443 10.4595638,71.5106269 10.4595638,71.5106269 Z" id="path-1"></path>
        <path d="M5.5633196,78.7953992 C5.77788252,79.1128191 6.13915807,79.1075115 6.34032066,78.7953992 C6.34032066,78.7953992 7.70235546,77.1322684 7.70235546,74.3717155 C7.70235546,71.6111626 6.34032066,69.9480319 6.34032066,69.9480319 C6.12575774,69.630612 5.76448218,69.6359195 5.5633196,69.9480319 C5.5633196,69.9480319 4.2012848,71.6111626 4.2012848,74.3717155 C4.2012848,77.1322684 5.5633196,78.7953992 5.5633196,78.7953992 Z" id="path-2"></path>
        <path d="M1.32666977,85.0036563 C1.53259425,85.3240807 1.88139086,85.3215839 2.07238828,85.0036563 C2.07238828,85.0036563 2.80085653,84.1759078 2.80085653,82.4391403 C2.80085653,80.7023728 2.07238828,79.8746243 2.07238828,79.8746243 C1.8664638,79.5541999 1.51766719,79.5566967 1.32666977,79.8746243 C1.32666977,79.8746243 0.598201519,80.7023728 0.598201519,82.4391403 C0.598201519,84.1759078 1.32666977,85.0036563 1.32666977,85.0036563 Z" id="path-3"></path>
        <path d="M45.5139186,54.5827815 C60.5959045,54.5827815 72.8222698,42.3640096 72.8222698,27.2913907 C72.8222698,12.2187718 60.5959045,0 45.5139186,0 C30.4319327,0 18.2055675,12.2187718 18.2055675,27.2913907 C18.2055675,42.3640096 30.4319327,54.5827815 45.5139186,54.5827815 Z" id="path-4"></path>
        <polygon id="path-6" points="31.2638916 5.23230887 65.2917271 5.36763106 73.1546962 11.3662317 30.9534781 13.8324656"></polygon>
        <path d="M14.2034822,8.65059454 L0.415515669,38.4113495 L50.0094524,35.0450413 L39.5154311,8.51969021 C39.5154311,8.51969021 29.5222158,10.6276976 25.212484,10.6499859 C20.9027522,10.6722743 14.2034822,8.65059454 14.2034822,8.65059454 Z" id="path-7"></path>
        <polygon id="path-9" points="21.1127526 60.8445205 56.9541428 61.0015178 65.2361784 67.9609381 20.7857953 70.8221984"></polygon>
        <path d="M28.9803063,61.969891 C44.8661049,61.969891 57.7440891,49.0446604 57.7440891,33.1005805 C57.7440891,25.2432262 54.616558,18.1190259 49.5427824,12.9135999 C47.6240921,10.945125 53.2727168,2.84025041 50.8612679,1.4846751 C46.7097407,-0.849070365 34.0770097,4.23126997 28.9803063,4.23126997 C25.0021784,4.23126997 21.2126717,5.04181598 17.7667868,6.50733863 C16.021095,7.24977517 11.2454118,6.34690496 11.2454118,6.34690496 C11.2454118,6.34690496 11.0258286,10.5177953 10.1921156,11.240256 C4.08297365,16.5341828 0.216523418,24.3641962 0.216523418,33.1005805 C0.216523418,49.0446604 13.0945076,61.969891 28.9803063,61.969891 Z" id="path-10"></path>
        <polygon id="path-12" points="1.91184629 10.3378261 53.5275388 6.23949239 47.8963611 14.3013867 1.58488896 19.4352223"></polygon>
    </defs>
    <g id="Page-1" stroke="none" stroke-width="1" fill="none" fill-rule="evenodd">
        <g id="proposition-3-1-square" transform="translate(-91.000000, -2051.000000)">
            <g id="Group-9" transform="translate(93.000000, 1969.000000)">
                <g id="Group-8" transform="translate(0.000000, 65.000000)">
                    <g id="illustration-1">
                        <g id="Group-11" transform="translate(0.000000, 18.000000)">
                            <g id="Group-2" transform="translate(0.000000, 11.896247)">
                                <path d="M16.7048145,30.5243212 C16.7048145,30.5243212 11.2774209,44.2912334 11.2806934,53.0233051 C11.2839659,61.7553767 12.9840147,65.4640543 12.9840147,65.4640543 C12.9840147,65.4640543 21.7755087,69.4212853 29.7668835,59.8438052 C37.7582583,50.2663251 16.7048145,30.5243212 16.7048145,30.5243212 Z" id="Path-7" stroke="#476B87" stroke-width="2.09999996" fill="#FFFFFF"></path>
                                <path d="M12.5195065,60.9637379 C13.998433,58.7352784 16.279187,51.4175584 17.7581134,49.1890989" id="Path-8" stroke="#476B87" stroke-width="0.699999988"></path>
                                <path d="M13.9199348,63.7628549 C15.3988612,61.5343954 21.8809001,61.2144679 23.3598265,58.9860084" id="Path-8-Copy-2" stroke="#476B87" stroke-width="0.699999988"></path>
                                <path d="M14.6201489,60.9637379 C16.0990754,58.7352784 19.7802577,55.6162339 21.2591841,53.3877744" id="Path-8-Copy" stroke="#476B87" stroke-width="0.699999988"></path>
                                <g id="Oval-3">
                                    <use fill="#FFFFFF" fill-rule="evenodd" xlink:href="#path-1"></use>
                                    <path stroke="#476B87" stroke-width="2.09999996" d="M9.62126103,72.143443 C10.2653472,73.0261743 11.5033996,73.0146655 12.1194457,72.0949797 C12.3743653,71.7830603 12.8059397,71.1094684 13.2304864,70.1809592 C13.9325283,68.6455514 14.3540685,66.9316089 14.3540685,65.0794702 C14.3540685,63.2273315 13.9325283,61.513389 13.2304864,59.9779812 C12.8059397,59.049472 12.3743653,58.3758801 12.0663808,57.9916271 C11.472444,57.1326203 10.210965,57.1327403 9.58719244,58.0639607 C9.33227282,58.3758801 8.90069844,59.049472 8.4761517,59.9779812 C7.77410978,61.513389 7.35256961,63.2273315 7.35256961,65.0794702 C7.35256961,66.9316089 7.77410978,68.6455514 8.4761517,70.1809592 C8.89204018,71.0905322 9.31467257,71.7554796 9.62126103,72.143443 L9.62126103,72.143443 Z"></path>
                                </g>
                                <g id="Oval-3-Copy">
                                    <use fill="#FFFFFF" fill-rule="evenodd" xlink:href="#path-2"></use>
                                    <path stroke="#476B87" stroke-width="2.09999996" d="M4.72415371,79.4274511 C5.35444858,80.3018762 6.56999171,80.2996579 7.18564024,79.4196955 C7.40780385,79.1388254 7.69781819,78.6776189 7.97973727,78.047683 C8.46312654,76.9675708 8.75235544,75.7350965 8.75235544,74.3717155 C8.75235544,73.0083346 8.46312654,71.7758603 7.97973727,70.6957481 C7.68364907,70.0341519 7.37863144,69.5586719 7.15266655,69.2827544 C6.58835239,68.4401841 5.34378197,68.4292128 4.71799246,69.3237451 C4.49582983,69.6046161 4.20581888,70.0658194 3.92390299,70.6957481 C3.44051371,71.7758603 3.15128481,73.0083346 3.15128481,74.3717155 C3.15128481,75.7350965 3.44051371,76.9675708 3.92390299,78.047683 C4.20843243,78.6834516 4.50120774,79.1473518 4.72415371,79.4274511 Z"></path>
                                </g>
                                <g id="Oval-3-Copy-2">
                                    <use fill="#FFFFFF" fill-rule="evenodd" xlink:href="#path-3"></use>
                                    <path stroke="#476B87" stroke-width="2.09999996" d="M0.488104945,85.6376423 C1.10807673,86.5128785 2.317919,86.514075 2.92039945,85.625891 C3.06918974,85.4394482 3.24092844,85.1606928 3.40140425,84.7870482 C3.6844185,84.1280907 3.85085651,83.3437532 3.85085651,82.4391403 C3.85085651,81.5345274 3.6844185,80.7501899 3.40140425,80.0912324 C3.23752109,79.7096543 3.06189167,79.4270377 2.91095311,79.2406383 C2.29098132,78.365402 1.08113905,78.3642056 0.478658598,79.2523896 C0.32986831,79.4388324 0.158129608,79.7175878 -0.0023462004,80.0912324 C-0.285360449,80.7501899 -0.451798463,81.5345274 -0.451798463,82.4391403 C-0.451798463,83.3437532 -0.285360449,84.1280907 -0.0023462004,84.7870482 C0.161536962,85.1686263 0.337166382,85.4512429 0.488104945,85.6376423 L0.488104945,85.6376423 Z"></path>
                                </g>
                                <mask id="mask-5" fill="white">
                                    <use xlink:href="#path-4"></use>
                                </mask>
                                <g id="Mask">
                                    <use fill="#FFFFFF" fill-rule="evenodd" xlink:href="#path-4"></use>
                                    <path stroke="#476B87" stroke-width="2.09999996" d="M45.5139186,55.6327814 C61.1756575,55.6327814 73.8722698,42.9440547 73.8722698,27.2913907 C73.8722698,11.6387268 61.1756575,-1.04999998 45.5139186,-1.04999998 C29.8521797,-1.04999998 17.1555675,11.6387268 17.1555675,27.2913907 C17.1555675,42.9440547 29.8521797,55.6327814 45.5139186,55.6327814 Z"></path>
                                </g>
                                <path d="M71.6601087,9.90569699 C71.6601087,9.90569699 41.8320385,14.0614662 40.6694886,28.1667836 C39.5069386,42.2721011 23.2102795,48.9065297 23.2102795,48.9065297 C23.2102795,48.9065297 -1.65459649,32.048853 23.2102795,5.05450674 C48.0751555,-21.9398395 71.6601087,9.90569699 71.6601087,9.90569699 Z" id="Path-4" stroke="#476B87" stroke-width="2.09999996" fill="#FFFFFF" mask="url(#mask-5)"></path>
                                <ellipse id="Oval-2-Copy" fill="#476B87" mask="url(#mask-5)" cx="66.5203426" cy="31.4900662" rx="3.50107066" ry="3.49889625"></ellipse>
                                <path d="M45.511118,13.2445559 C35.0965459,15.9765449 32.4720737,28.4487981 25.5800929,35.6823582" id="Path-5" stroke="#476B87" stroke-width="0.699999988" mask="url(#mask-5)"></path>
                                <path d="M44.5749299,6.73720226 C35.1876832,6.73720226 32.9019447,13.6946449 27.0416642,21.0994624" id="Path-6" stroke="#476B87" stroke-width="0.699999988" mask="url(#mask-5)"></path>
                            </g>
                            <g id="Group" transform="translate(11.903640, 0.000000)" stroke-width="2.09999996" stroke="#476B87" fill="#FFFFFF">
                                <polygon id="Rectangle-2" transform="translate(28.637392, 16.025791) rotate(-13.000000) translate(-28.637392, -16.025791) " points="1.55643973 6.19968574 23.2525958 6.19968574 28.5457925 12.022563 33.42445 6.19968574 55.7183439 6.19968574 52.7093493 25.8518964 3.81318574 25.8518964"></polygon>
                            </g>
                            <g id="body" transform="translate(19.605996, 57.386313)">
                                <g id="Rectangle-7" transform="translate(52.054087, 9.532387) rotate(-13.000000) translate(-52.054087, -9.532387) ">
                                    <use fill="#FFFFFF" fill-rule="evenodd" xlink:href="#path-6"></use>
                                    <path stroke="#476B87" stroke-width="1.39999998" d="M31.9389845,5.93499911 L65.0539682,6.06669107 L71.2289975,10.777575 L31.6807769,13.088768 L31.9389845,5.93499911 Z"></path>
                                </g>
                                <path d="M15.3940043,38.6136865 L11.3940043,49.6136865" id="Line" stroke="#476B87" stroke-width="2" stroke-linecap="square"></path>
                                <path d="M31.3940043,36.6136865 L37.3940043,48.6136865" id="Line-Copy-4" stroke="#476B87" stroke-width="2" stroke-linecap="square"></path>
                                <mask id="mask-8" fill="white">
                                    <use xlink:href="#path-7"></use>
                                </mask>
                                <use id="Mask" stroke="#476B87" stroke-width="2.09999996" fill="#FFFFFF" xlink:href="#path-7"></use>
                                <path d="M10.503212,17.4900662 L42.012848,15.3907285" id="Line" stroke="#476B87" stroke-width="1.39999998" stroke-linecap="square" mask="url(#mask-8)"></path>
                                <path d="M8.40256959,21.6887417 L43.4132762,18.8896247" id="Line-Copy" stroke="#476B87" stroke-width="1.39999998" stroke-linecap="square" mask="url(#mask-8)"></path>
                                <g id="Group-10" mask="url(#mask-8)" stroke-linecap="square" stroke="#476B87" stroke-width="1.39999998">
                                    <g transform="translate(25.507205, 30.088133) rotate(-1.000000) translate(-25.507205, -30.088133) translate(3.507205, 26.588133)">
                                        <path d="M2.63470972,2.09933775 L42.1553555,0" id="Line-Copy-3"></path>
                                        <path d="M0,6.29801325 L43.9118287,3.49889625" id="Line-Copy-2"></path>
                                    </g>
                                </g>
                            </g>
                        </g>
                        <g id="Group-11-Copy" transform="translate(79.000000, 0.000000)">
                            <g id="Group-2" transform="translate(29.551656, 21.046598)">
                                <g id="Rectangle-7" transform="translate(43.010987, 65.833359) rotate(57.000000) translate(-43.010987, -65.833359) ">
                                    <use fill="#FFFFFF" fill-rule="evenodd" xlink:href="#path-9"></use>
                                    <path stroke="#476B87" stroke-width="1.47840003" d="M21.8280237,61.5868608 L56.6833977,61.7395389 L63.3501276,67.3416129 L21.5512796,70.0321945 L21.8280237,61.5868608 Z"></path>
                                </g>
                                <path d="M21.0659242,92.1398734 L16.8527394,103.775866" id="Line" stroke="#476B87" stroke-width="2.11200007" stroke-linecap="square"></path>
                                <path d="M37.9186636,90.0242384 L44.2384409,102.718048" id="Line-Copy-4" stroke="#476B87" stroke-width="2.11200007" stroke-linecap="square"></path>
                                <mask id="mask-11" fill="white">
                                    <use xlink:href="#path-10"></use>
                                </mask>
                                <g id="Mask">
                                    <use fill="#FFFFFF" fill-rule="evenodd" xlink:href="#path-10"></use>
                                    <path stroke="#476B87" stroke-width="2.21760004" d="M28.9803063,63.078691 C45.479389,63.078691 58.8528891,49.6561267 58.8528891,33.1005805 C58.8528891,25.1590498 55.7605533,17.7041507 50.3367988,12.1396649 C50.0446634,11.8399494 50.2991217,10.5150418 51.3066731,7.69060832 C51.3275957,7.63196775 51.3275957,7.63196775 51.3485584,7.57324433 C52.0581253,5.58562112 52.3119423,4.79145604 52.4785582,3.85276117 C52.7522791,2.31064883 52.5115962,1.14040897 51.4046063,0.518124067 C49.1602525,-0.743520166 45.6367053,-0.407893036 39.2589266,1.07889873 C38.7617882,1.19479194 38.2485852,1.31693232 37.598823,1.47342306 C31.9917002,2.82386005 30.5463597,3.12246995 28.9803063,3.12246995 C24.9274974,3.12246995 20.9857299,3.93342085 17.3328339,5.48698461 C16.92119,5.66205528 16.0330195,5.72957017 14.8779416,5.66989934 C14.2375429,5.63681661 13.5471945,5.56817313 12.8430973,5.47448903 C12.4827325,5.42654047 12.1423201,5.37515879 11.8330329,5.32388026 C11.6493276,5.29342268 11.5184422,5.27008145 11.4513881,5.2574045 L10.2048418,5.02173779 L10.1381453,6.28861113 C10.1305535,6.43281302 10.1129265,6.69370306 10.0833883,7.03145123 C10.0341954,7.59393681 9.96943128,8.15561808 9.88792349,8.67452613 C9.73773143,9.63070303 9.51620568,10.35878 9.46598057,10.402303 C2.93496363,16.0618089 -0.892276601,24.2710061 -0.892276601,33.1005805 C-0.892276601,49.6561267 12.4812235,63.078691 28.9803063,63.078691 Z"></path>
                                </g>
                                <path d="M56.5199892,14.7096895 C56.5199892,14.7096895 10.3725769,14.722698 9.14806744,29.6435495 C7.92355796,44.564401 9.14806744,66.9382654 9.14806744,66.9382654 C9.14806744,66.9382654 -20.702112,38.1331073 5.48796766,9.57801562 C18.529477,-4.64116581 42.8797749,-11.8577795 52.3518571,-7.05457247 C61.8239394,-2.25136548 56.5199892,14.7096895 56.5199892,14.7096895 Z" id="Path-4" stroke="#476B87" stroke-width="2.21760004" fill="#FFFFFF" mask="url(#mask-11)"></path>
                                <ellipse id="Oval-2-Copy" fill="#476B87" mask="url(#mask-11)" cx="51.1062931" cy="37.5420129" rx="3.68766447" ry="3.70119366"></ellipse>
                                <path d="M42.2917332,52.5699542 C42.2917332,52.5699542 45.4776398,55.2519305 48.6635463,55.2519305" id="Path-12" stroke="#476B87" stroke-width="1.75999999" stroke-linecap="round" mask="url(#mask-11)"></path>
                            </g>
                            <g id="body" transform="translate(0.243245, 72.433682)">
                                <path d="M45.960474,10.1151247 L31.4376611,41.5965719 L83.6747667,38.0356323 L72.6214538,9.97665182 C72.6214538,9.97665182 62.0956381,12.2065389 57.5562139,12.2301159 C53.0167897,12.253693 45.960474,10.1151247 45.960474,10.1151247 Z" id="Mask" stroke="#476B87" stroke-width="2.21760004" fill="#FFFFFF"></path>
                                <g id="Rectangle-7-Copy" transform="translate(27.556214, 12.837357) rotate(-167.000000) translate(-27.556214, -12.837357) ">
                                    <use fill="#FFFFFF" fill-rule="evenodd" xlink:href="#path-12"></use>
                                    <path stroke="#476B87" stroke-width="1.47840003" d="M2.62691388,11.0225756 L52.0245607,7.10035674 L47.4821032,13.603581 L2.35436118,18.6061948 L2.62691388,11.0225756 Z"></path>
                                </g>
                            </g>
                            <path d="M31.0265487,98.028169 L10,98.028169" id="Line" stroke="#476B87" stroke-width="1.75999999" stroke-linecap="square"></path>
                            <path d="M31.9026549,102.429577 L19.6371681,102.429577" id="Line-Copy-5" stroke="#476B87" stroke-width="1.75999999" stroke-linecap="square"></path>
                        </g>
                        <path d="M5,128 L204,125" id="Line" stroke="#58768F" stroke-width="2" stroke-linecap="square"></path>
                    </g>
                </g>
            </g>
        </g>
    </g>
</svg>
