<?xml version="1.0" encoding="UTF-8"?>
<svg width="98px" height="98px" viewBox="0 0 98 98" version="1.1" xmlns="http://www.w3.org/2000/svg" xmlns:xlink="http://www.w3.org/1999/xlink">
    <!-- Generator: Sketch 43.2 (39069) - http://www.bohemiancoding.com/sketch -->
    <title>rocket</title>
    <desc>Created with Sketch.</desc>
    <defs>
        <path d="M19.2239334,21.3176425 C24.7499601,21.3176425 29.2296899,16.8713632 29.2296899,11.3865997 C29.2296899,8.68366982 28.1417483,6.23294491 26.376787,4.44227837 C25.7093523,3.765123 27.6742803,0.977046142 26.8354348,0.510728233 C25.3912864,-0.292080206 20.9968703,1.45555687 19.2239334,1.45555687 C17.8401036,1.45555687 16.5218875,1.7343847 15.3232036,2.23852449 C14.715948,2.49392266 13.054681,2.18333531 13.054681,2.18333531 C13.054681,2.18333531 12.9782969,3.61812157 12.6882819,3.86664808 C10.5631585,5.68775889 9.21817688,8.38128349 9.21817688,11.3865997 C9.21817688,16.8713632 13.6979067,21.3176425 19.2239334,21.3176425 Z" id="path-1"></path>
    </defs>
    <g id="Page-1" stroke="none" stroke-width="1" fill="none" fill-rule="evenodd">
        <g id="proposition-3-1-square" transform="translate(-431.000000, -2866.000000)">
            <g id="rocket" transform="translate(433.000000, 2868.000000)">
                <g id="Group-11" transform="translate(58.804634, 31.960252) rotate(23.000000) translate(-58.804634, -31.960252) translate(42.804634, 9.960252)">
                    <g id="Group-2" transform="translate(0.010273, 7.240030)">
                        <path d="M16.47084,31.6961164 L15.0052434,35.6988978" id="Line" stroke="#476B87" stroke-width="0.719999986" stroke-linecap="square"></path>
                        <path d="M22.3332263,30.968338 L24.5316212,35.3350086" id="Line-Copy-4" stroke="#476B87" stroke-width="0.719999986" stroke-linecap="square"></path>
                        <mask id="mask-2" fill="white">
                            <use xlink:href="#path-1"></use>
                        </mask>
                        <g id="Mask">
                            <use fill="#FFFFFF" fill-rule="evenodd" xlink:href="#path-1"></use>
                            <path stroke="#476B87" stroke-width="0.755999972" d="M19.2239334,21.6956425 C24.9580921,21.6956425 29.6076899,17.0807637 29.6076899,11.3865997 C29.6076899,8.65471947 28.5321065,6.09050873 26.6459987,4.17693129 C26.5435275,4.07296771 26.6318531,3.61817851 26.982662,2.64567943 C26.9899402,2.62550697 26.9899402,2.62550697 26.9972322,2.60530607 C27.5674634,1.02570957 27.6556793,0.534225267 27.0190959,0.180345734 C26.2417631,-0.251776991 25.0175099,-0.136457497 22.8021031,0.37426935 C22.6291998,0.414129474 22.4507018,0.456139963 22.2247002,0.509966975 C20.2727858,0.97485626 19.770114,1.07755688 19.2239334,1.07755688 C17.8157008,1.07755688 16.4460354,1.35621554 15.1766586,1.89008718 C15.0315092,1.95113379 14.7211128,1.97446699 14.3176778,1.95385694 C14.0945586,1.94245859 13.8541093,1.91881523 13.608891,1.88654957 C13.3940552,1.85828161 13.222198,1.83010454 13.1241476,1.81177321 L12.7001468,1.73250284 L12.6772156,2.16324007 C12.6664113,2.36618586 12.6389131,2.67711989 12.5901805,2.98392682 C12.5378186,3.31358292 12.4608528,3.56373558 12.4423157,3.57962083 C10.171323,5.52573341 8.8401769,8.34928168 8.8401769,11.3865997 C8.8401769,17.0807637 13.4897746,21.6956425 19.2239334,21.6956425 Z"></path>
                        </g>
                        <path d="M19.2,17.8661972 C19.2,17.8661972 20.8652505,19.0668927 22.5305009,17.8661972" id="Path-12" stroke="#476B87" stroke-width="0.599999964" stroke-linecap="round" mask="url(#mask-2)"></path>
                        <ellipse id="Oval-2-Copy" fill="#476B87" mask="url(#mask-2)" cx="17.1304083" cy="13.9915205" rx="1.28278929" ry="1.27321062"></ellipse>
                        <ellipse id="Oval-2-Copy-2" fill="#476B87" mask="url(#mask-2)" cx="23.5304083" cy="13.9915205" rx="1.28278929" ry="1.27321062"></ellipse>
                    </g>
                    <g id="body" transform="translate(9.741565, 28.330539)" stroke="#476B87" stroke-width="0.755999972" fill="#FFFFFF">
                        <path d="M5.20414371,0.0662507877 L0.152244585,10.8958686 L15.5976986,10.6826905 L14.4784201,0.0186161133 C14.4784201,0.0186161133 10.8169146,0.785697256 9.23783256,0.793807761 C7.65875052,0.801918265 5.20414371,0.0662507877 5.20414371,0.0662507877 Z" id="Mask"></path>
                    </g>
                </g>
                <path d="M2.125,47.738 C1.32031,47.734094 0.5977,47.24581 0.293,46.5036 C-0.01559,45.75751 0.15238,44.9059 0.71878,44.3317 L22.78078,22.2697 C23.73781,21.31267 24.63628,21.68767 33.44878,21.68767 C33.83159,21.722826 34.16362,21.96892 34.31206,22.32439 C34.4605,22.67986 34.401904,23.08611 34.15581,23.38689 L15.62481,41.91789 C13.66781,43.87489 14.15601,45.49989 13.66781,46.49989 C12.96859,48.11319 12.34361,47.73819 2.12481,47.73819 L2.125,47.738 Z M70.613,59.843 C44.031,86.425 53.113,77.749 47.5,80.331 C45.8555,81.081 46.2617,81.788 46.2617,91.913 L46.2617,91.916907 C46.265606,92.717687 46.75389,93.440307 47.4961,93.748907 C48.24219,94.053597 49.0938,93.885627 49.668,93.323127 L71.73,71.218127 C72.10109,70.843127 72.31203,70.339217 72.31203,69.811927 L72.31203,60.542427 C72.272968,60.159617 72.02687,59.831487 71.67141,59.683047 C71.31594,59.538517 70.90969,59.601015 70.61281,59.843207 L70.613,59.843 Z M45.957,75.124 L18.875,48.042 C18.63672,47.82716 18.3125,47.73731 17.99609,47.792 C17.67968,47.850593 17.41015,48.04981 17.26171,48.33106 L13.89841,55.73726 L13.894503,55.73726 C13.550753,56.49507 13.714813,57.38956 14.300753,57.97946 L36.073753,79.69846 C36.659693,80.2883 37.554253,80.45237 38.312053,80.10471 L45.718253,76.74141 L45.718253,76.737503 C45.995593,76.581253 46.183093,76.303913 46.229973,75.987503 C46.272942,75.675003 46.175285,75.354693 45.956533,75.124223 L45.957,75.124 Z M93.875,2.124 C93.925781,20.593 86.5859,38.312 73.488,51.331 L53.488,71.331 C52.74191,72.081 51.7263,72.5029 50.6677,72.5029 C49.6091,72.5029 48.5935,72.08102 47.8435,71.331 L22.6755,46.143 C21.92941,45.39691 21.5075,44.3813 21.5075,43.3227 C21.5075,42.2641 21.92938,41.2485 22.6755,40.4985 L42.6755,20.4985 C55.6985,7.4085 73.4135,0.0725 91.8745,0.1235 C92.40575,0.1235 92.9136,0.33444 93.2886,0.70944 C93.6636,1.08444 93.87454,1.59225 93.87454,2.12354 L93.875,2.124 Z M70.781,25.542 C68.3474,22.0928 63.9607,20.6201 59.937,21.8975 C55.9136,23.1748 53.1792,26.9092 53.1792,31.128 C53.1792,35.3507 55.9136,39.085 59.937,40.3624 C63.9604,41.6397 68.3472,40.16709 70.781,36.7179 C73.1404,33.3663 73.1404,28.8937 70.781,25.5419 L70.781,25.542 Z M17.031,74.155 L6.144,85.03 C5.36666,85.81125 5.36666,87.073 6.144,87.8542 C6.92525,88.63154 8.187,88.63154 8.9682,87.8542 L19.8432,76.9672 C20.58148,76.18595 20.56195,74.9555 19.804138,74.1938 C19.042418,73.43599 17.811938,73.41646 17.030738,74.154738 L17.031,74.155 Z M25.1872,80.4988 L16.1247,89.5613 C15.34345,90.34255 15.34345,91.6043 16.1247,92.3855 C16.90595,93.16284 18.1677,93.16284 18.9489,92.3855 L28.0114,83.323 C28.78874,82.54175 28.78874,81.28 28.0114,80.4988 C27.23015,79.71755 25.9684,79.71755 25.1872,80.4988 Z M10.6752,65.9868 L1.6127,75.0493 C0.83536,75.83055 0.83536,77.0923 1.6127,77.8735 C2.39395,78.65475 3.6557,78.65475 4.4369,77.8735 L13.4994,68.811 C14.28065,68.02975 14.28065,66.768 13.4994,65.9868 C12.71815,65.20946 11.4564,65.20946 10.6752,65.9868 L10.6752,65.9868 Z" id="Shape" stroke="#476B87" stroke-width="3" fill="#FFFFFF" fill-rule="nonzero"></path>
            </g>
        </g>
    </g>
</svg>
