<?xml version="1.0" encoding="UTF-8"?>
<svg width="774px" height="672px" viewBox="0 0 774 672" version="1.1" xmlns="http://www.w3.org/2000/svg" xmlns:xlink="http://www.w3.org/1999/xlink">
    <!-- Generator: Sketch 43.2 (39069) - http://www.bohemiancoding.com/sketch -->
    <title>shema</title>
    <desc>Created with Sketch.</desc>
    <defs>
        <circle id="path-1" cx="67" cy="67" r="67"></circle>
        <circle id="path-3" cx="67" cy="67" r="67"></circle>
        <path d="M33.0785314,70.3977962 C51.2108066,70.3977962 65.9099199,55.7147343 65.9099199,37.6022594 C65.9099199,28.676305 62.3401117,20.5832134 56.5488324,14.6698495 C54.3588122,12.433662 60.8062323,3.22652447 58.0537705,1.68659091 C53.3151585,-0.964543935 38.8959808,4.80672269 33.0785314,4.80672269 C28.53784,4.80672269 24.2124434,5.72750295 20.2792617,7.39233668 C18.2867044,8.2357446 12.8356721,7.21008403 12.8356721,7.21008403 C12.8356721,7.21008403 12.5850367,11.9482154 11.6334249,12.7689309 C4.66036386,18.7828317 0.247142892,27.6777269 0.247142892,37.6022594 C0.247142892,55.7147343 14.9462562,70.3977962 33.0785314,70.3977962 Z" id="path-5"></path>
        <circle id="path-7" cx="67" cy="67" r="67"></circle>
        <path d="M23.8725658,8.50335533 C24.2025544,8.06337049 24.7397307,8.06624914 25.0675603,8.50335533 L37.3725658,24.9100293 C37.7025544,25.3500141 37.5239545,25.7066923 36.9770976,25.7066923 L11.9630285,25.7066923 C11.4146289,25.7066923 11.2397307,25.3471355 11.5675603,24.9100293 L23.8725658,8.50335533 Z" id="path-9"></path>
        <path d="M23.8725658,8.50335533 C24.2025544,8.06337049 24.7397307,8.06624914 25.0675603,8.50335533 L37.3725658,24.9100293 C37.7025544,25.3500141 37.5239545,25.7066923 36.9770976,25.7066923 L11.9630285,25.7066923 C11.4146289,25.7066923 11.2397307,25.3471355 11.5675603,24.9100293 L23.8725658,8.50335533 Z" id="path-10"></path>
        <path d="M23.8725658,8.50335533 C24.2025544,8.06337049 24.7397307,8.06624914 25.0675603,8.50335533 L37.3725658,24.9100293 C37.7025544,25.3500141 37.5239545,25.7066923 36.9770976,25.7066923 L11.9630285,25.7066923 C11.4146289,25.7066923 11.2397307,25.3471355 11.5675603,24.9100293 L23.8725658,8.50335533 Z" id="path-11"></path>
    </defs>
    <g id="Page-1" stroke="none" stroke-width="1" fill="none" fill-rule="evenodd">
        <g id="shema" transform="translate(0.000000, -4.000000)">
            <ellipse id="Oval" stroke="#ECECF7" stroke-width="4.47999966" cx="406.5" cy="377" rx="270.26" ry="269.76"></ellipse>
            <g id="Group-2-Copy-3" transform="translate(0.000000, 243.000000)">
                <rect id="Rectangle-3" fill="#58768F" x="0" y="0" width="215" height="93"></rect>
                <text id="Contrat-de-travail" opacity="0.569999993" font-family="Exo2-Italic, Exo 2" font-size="31.3599976" font-style="italic" font-weight="normal" letter-spacing="-0.00313600013" fill="#FFFFFF">
                    <tspan x="54.8734548" y="37.6024096">Contrat de </tspan>
                    <tspan x="110.339882" y="74.6024096">travail</tspan>
                </text>
            </g>
            <g id="Group-2-Copy-4" transform="translate(262.000000, 583.000000)">
                <rect id="Rectangle-3" fill="#58768F" x="0" y="0" width="271" height="93"></rect>
                <text id="Contrat-de-prestatio" opacity="0.569999993" font-family="Exo2-Italic, Exo 2" font-size="31.3599976" font-style="italic" font-weight="normal" letter-spacing="-0.00313600013" fill="#FFFFFF">
                    <tspan x="50.392562" y="37.6024096">Contrat de </tspan>
                    <tspan x="50.392562" y="74.6024096">prestation</tspan>
                </text>
            </g>
            <g id="Group-2-Copy-5" transform="translate(503.000000, 184.000000)">
                <rect id="Rectangle-3" fill="#58768F" x="0" y="0" width="271" height="59"></rect>
                <text id="Mission" opacity="0.569999993" font-family="Exo2-Italic, Exo 2" font-size="31.3599976" font-style="italic" font-weight="normal" letter-spacing="-0.00313600013" fill="#FFFFFF">
                    <tspan x="50.392562" y="40.9056604">Mission</tspan>
                </text>
            </g>
            <g id="Group-6" transform="translate(278.000000, 44.000000)">
                <mask id="mask-2" fill="white">
                    <use xlink:href="#path-1"></use>
                </mask>
                <use id="Mask" fill="#FFFFFF" xlink:href="#path-1"></use>
                <g id="Group-7" mask="url(#mask-2)">
                    <g transform="translate(26.000000, 35.000000)">
                        <path d="M31.5209677,49.6080882 C31.5209677,53.7406912 25.3403226,53.7406912 25.3403226,49.6080882 C25.3403226,45.4754853 31.5209677,45.4754853 31.5209677,49.6080882" id="Shape" stroke="none" fill="#476B87" fill-rule="nonzero"></path>
                        <polyline id="Rectangle-5-Copy" stroke="#476B87" stroke-width="2" fill="none" points="48 65 73 103 6 104 20 64"></polyline>
                        <path d="M17,75 L53.0555128,75" id="Line" stroke="#476B87" stroke-width="2" fill="none" stroke-linecap="square"></path>
                        <path d="M15,80 L57.8002459,80" id="Line-Copy-6" stroke="#476B87" stroke-width="2" fill="none" stroke-linecap="square"></path>
                        <path d="M12,89 L63.8002459,89" id="Line-Copy-8" stroke="#476B87" stroke-width="2" fill="none" stroke-linecap="square"></path>
                        <path d="M10,94 L72.8002459,94" id="Line-Copy-7" stroke="#476B87" stroke-width="2" fill="none" stroke-linecap="square"></path>
                        <path d="M48.3241935,49.6080882 C48.3241935,53.7406912 42.1435484,53.7406912 42.1435484,49.6080882 C42.1435484,45.4754853 48.3241935,45.4754853 48.3241935,49.6080882" id="Shape" stroke="none" fill="#476B87" fill-rule="nonzero"></path>
                        <path d="M43.0693548,58.6507353 C43.6993871,58.01885 43.6993871,56.9952353 43.0693548,56.3632206 C42.4393226,55.7313191 41.4187097,55.7313191 40.7885484,56.3632206 C38.6716129,58.4863824 34.9858065,58.4863824 32.868871,56.3632206 C32.2388387,55.7313191 31.2182258,55.7313191 30.5880645,56.3632206 C29.9580323,56.9951059 29.9580323,58.0187206 30.5880645,58.6507353 C32.2577419,60.3188529 34.4754839,61.2415588 36.8317742,61.2415588 C39.1880645,61.2415588 41.4058065,60.3189985 43.0691935,58.6507353 L43.0693548,58.6507353 Z" id="Shape" stroke="none" fill="#476B87" fill-rule="nonzero"></path>
                        <path d="M28.7354839,26.1586765 C45.7709677,19.1573382 46.0370968,10.4181618 46.0370968,10.0454559 C46.0370968,9.60312647 45.6842742,9.24295735 45.2432419,9.23663235 C44.7707097,9.23663235 44.4367903,9.58416765 44.4241935,10.0328221 C44.4241935,10.1149694 44.0524677,18.1210574 28.1258065,24.6675132 C11.3032258,31.5740574 7.37258065,38.8914838 7.21451613,39.2011015 C7.01290323,39.5928794 7.1641129,40.0794353 7.55474194,40.2879662 C7.67444839,40.3511547 7.80045161,40.382749 7.92646774,40.382749 C8.21629032,40.382749 8.49980645,40.224776 8.64470968,39.9530696 C8.68251129,39.8709238 12.5572903,32.8063049 28.7366452,26.1589078 L28.7354839,26.1586765 Z" id="Shape" stroke="none" fill="#476B87" fill-rule="nonzero"></path>
                        <path d="M11.8451613,26.6455882 C12.059371,26.6455882 12.2672903,26.5634409 12.4248065,26.3991559 C14.5794839,24.1496559 17.187871,22.4055088 20.1617419,21.2113618 C29.5807742,17.4327 30.3180323,11.0062735 30.3431935,10.7345088 C30.3872968,10.2921794 30.0659677,9.90041765 29.6249516,9.84985 C29.1650161,9.80561868 28.787,10.1278912 28.7428871,10.5702044 C28.7176871,10.8040029 28.0246452,16.3204544 19.5695,19.7073221 C16.3814355,20.9900676 13.5841774,22.8604397 11.2719194,25.2806015 C10.9631935,25.6028691 10.9695,26.1146926 11.297121,26.4243265 C11.4420306,26.5696624 11.6436371,26.6454912 11.84525,26.6454912 L11.8451613,26.6455882 Z" id="Shape" stroke="none" fill="#476B87" fill-rule="nonzero"></path>
                        <path d="M62.8845323,10.7464956 C62.5254032,10.2978574 62.2733871,10.0135074 62.1851935,9.89344559 C56.5526129,3.41654853 48.3306774,0.137092647 37.7529355,0.137092647 C24.2889032,0.137092647 13.2819677,5.20485735 6.77390323,14.405225 C-0.421096774,24.5724603 -1.61819355,38.8155191 3.49132258,53.4681662 C3.77483871,54.2896235 4.52459677,54.8330559 5.39406452,54.8456897 C6.28872258,54.8456897 7.03217419,54.340175 7.33460968,53.5439853 C7.54252903,53.0005529 7.86383548,52.2738735 8.32377097,51.4082059 C11.5118355,57.9483529 16.8482871,63.1172206 23.2557065,66.1818529 C23.2557065,66.1818529 29.6836735,69.4522535 36.037009,69.772422 C42.3903445,70.0925906 48.0857049,67.1686031 48.0857049,67.1686031 L51.7463517,75.0397266 C51.7463517,75.0397266 55.4043073,77.1148702 59.3046154,78.6321504 C63.2049235,80.1494306 66.3748418,80.7510382 67.3908677,80.8869118 C67.7499968,82.0938221 68.2792226,83.3323088 69.0605452,84.6087941 C69.6023839,85.4934529 70.5474484,86.0747868 71.5932871,86.1569309 C72.280029,86.1695696 72.6958677,86.0747851 73.0864806,85.9168122 C73.1368839,87.1679651 73.3889,88.5013269 73.9496419,89.9293857 C74.3654645,90.9909666 75.2727226,91.7681651 76.3815774,92.0083857 C76.6083839,92.0589372 76.8415129,92.0842129 77.0746258,92.0842129 C77.4652548,92.0842129 77.8558839,92.0083857 78.2213032,91.8693732 C78.2402032,92.9625468 78.4481097,94.1377997 78.9458516,95.4016674 C79.3175774,96.3495115 80.1303355,97.0445497 81.113271,97.2593732 C81.3211903,97.3036046 81.5290935,97.3225618 81.7307065,97.3225618 C81.9260129,97.3225618 82.115029,97.3036046 82.3040452,97.2656918 L85.4858194,106.630412 C85.7126258,107.300215 86.3426742,107.729911 87.0105129,107.729911 C87.1743194,107.729911 87.3444323,107.704635 87.5082387,107.647764 C99.1892065,103.856322 98.4079161,93.8282047 98.3953355,93.7271018 C98.3386323,93.1331179 97.9606097,92.6149694 97.4124645,92.3811709 L86.9537548,87.9958915 C86.8277468,87.1112326 86.5946258,86.2202003 86.2040129,85.3419797 C85.8133839,84.4699709 85.0195452,83.8380694 84.0682065,83.6673915 C83.8161903,83.6231585 83.5641742,83.6105215 83.3121581,83.6294771 C83.5263677,81.8348594 83.2995565,79.8191094 82.3229968,77.6011535 C81.8945774,76.6280418 81.0062065,75.9265653 79.9476742,75.73083 C79.4247387,75.6360456 78.8955129,75.6676399 78.4040774,75.8192943 C78.5930935,73.2158531 78.0260452,70.2712501 75.9973032,67.1686031 C75.7452871,66.7831501 75.4176581,66.4798413 75.0459484,66.2397178 C77.4022387,34.6325119 68.2099806,18.127659 64.0832065,12.3138354 C63.7744919,11.9031019 63.572879,11.6313857 63.3838629,11.3849534 C63.2184516,11.1698662 63.0546452,10.9550265 62.8845323,10.7464956 Z M9.40629032,16.2813235 C15.3790323,7.83914706 25.1824194,3.37169118 37.7579032,3.37169118 C47.3533871,3.37169118 54.7562903,6.27844118 59.7466129,12.0096029 C65.0579032,18.1073235 66.7462903,26.3536029 67.1874194,32.5779853 C62.8527419,28.3127353 62.3046774,19.0175735 62.2983871,18.8975441 C62.2731855,18.4489059 61.8951613,18.1139882 61.454129,18.1329471 C61.0130968,18.1582228 60.6665806,18.5373588 60.6917742,18.9796882 C60.7169758,19.5167956 61.3722258,30.6443794 67.3009677,34.7769824 C67.3576726,36.6916294 67.3072694,38.3345118 67.2379645,39.5035853 C61.1265129,36.7611882 58.9655452,29.3743647 57.8566742,23.8452471 C56.8927065,19.02385 57.0187226,15.0303647 57.0187226,14.99235 C57.0502258,14.1013824 56.3508839,13.3494676 55.462529,13.3177618 C54.6308839,13.2735304 53.8244645,13.9812559 53.7928516,14.8722235 C53.7865516,15.0365118 53.6668452,18.6889 54.4859,23.3964147 C50.0629968,26.1640471 44.3044484,28.2809 37.3617065,29.6837235 C17.0246097,33.7974 8.75202903,43.9518559 5.63912581,49.5953412 C1.9466129,36.9572794 3.27612903,24.9454412 9.40629032,16.2813235 Z M10.4080645,48.1417882 C14.2701613,42.9666118 22.2024194,36.0535971 38.0032258,32.8626265 C44.8203226,31.4851029 50.5914516,29.4377441 55.1903226,26.7585971 C56.5323065,32.3571118 59.0777419,38.8467882 64.9496774,41.9809794 C62.7696774,55.7562147 50.8430645,66.0564206 36.8303226,66.0564206 C25.2564516,66.0564206 14.7222581,58.8718029 10.406129,48.1425971 L10.4080645,48.1417882 Z M84.9653387,95.0855824 C85.0094403,95.0287107 85.0472435,94.9655222 85.0913452,94.9023353 L88.5944097,99.4013353 C88.7519194,99.6035412 88.991329,99.7109691 89.2307484,99.7109691 C89.4071677,99.7109691 89.583571,99.6540991 89.7284742,99.5403559 C90.0812968,99.2623147 90.1442968,98.7568 89.8670839,98.4029559 L85.9924065,93.4299853 C86.0239097,93.3667968 86.0554113,93.3036066 86.0806129,93.2404132 L91.8014194,96.1850162 C91.9211274,96.2482063 92.047129,96.2734804 92.1668387,96.2734804 C92.4566613,96.2734804 92.7401774,96.1155075 92.8850806,95.831151 C93.0866935,95.4330643 92.9354839,94.9464922 92.5385645,94.7442863 L86.6603387,91.7175069 C86.6918403,91.6100854 86.7296435,91.508976 86.7548435,91.4015643 L95.1469403,94.9212407 C95.0020306,96.8991378 93.9813597,101.455079 87.9896823,103.99527 L84.9653387,95.0855824 Z M83.4092097,87.0665824 C84.4991774,90.0048765 83.2265,92.3239353 81.7963065,93.8530971 C80.7945484,90.8958765 82.0357258,88.5831265 83.4092097,87.0665824 Z M79.3517903,78.8961706 C81.3175968,83.3383912 79.194279,86.7443471 77.0646935,88.8358029 L76.9386855,88.7347 C75.2061048,84.3240235 77.2537016,80.9560824 79.2698145,78.9087882 L78.1231371,77.7713721 L79.3517903,78.8961706 Z M71.7913065,82.9150529 C68.0488871,76.7919353 71.0352581,71.5536706 73.1458871,68.9691559 L73.2655952,68.9312431 C77.253821,75.016346 74.1035468,80.3052431 71.7913048,82.9149931 L71.7913065,82.9150529 Z M71.7976065,66.0300529 C71.3943806,66.2259338 71.0226548,66.503975 70.7202355,66.8515103 C70.2288,60.9305985 67.5512032,55.4647309 67.4062032,55.1805103 C67.2045903,54.7824235 66.7257516,54.6181191 66.3225258,54.820325 C65.9256065,55.0225309 65.7617839,55.5027779 65.9633968,55.9071897 C66.0011984,55.9830153 69.2900097,62.6937044 69.1703323,69.0127191 C68.9750258,69.3349868 68.7797032,69.6762132 68.5906871,70.0363824 C64.0292355,67.0348382 62.7502032,61.8848971 62.7376226,61.8281176 C62.6368161,61.3921132 62.2083806,61.1267221 61.7673645,61.227825 C61.3389452,61.3289279 61.0680258,61.7649324 61.1688323,62.2009368 C61.2255371,62.4536941 62.6305258,68.1723191 67.8914129,71.5087162 C67.6457032,72.1090088 67.4314774,72.7535441 67.2550742,73.4233632 C65.2326548,73.0695029 59.8773323,71.7615544 56.544429,67.4519809 C56.2672032,67.0981206 55.763171,67.0349353 55.4103645,67.306645 C55.0575419,67.5783612 54.9945419,68.0902009 55.2717548,68.4440612 C58.9511097,73.1958994 64.6341742,74.6176494 66.9275613,75.0157524 C66.8078532,75.8182509 66.7574484,76.6586347 66.7889516,77.5307082 C63.5945968,77.0125597 57.2691129,75.5971347 53.1926613,72.0900759 L50.4078226,66.2071788 C59.4110484,61.9103847 66.133629,53.4745171 67.9981452,43.2123259 C68.0800516,43.2376016 68.1556548,43.2691975 68.2438548,43.2881531 C68.6911774,43.4018947 69.1637097,43.3260675 69.5480323,43.0669884 C69.9323548,42.807906 70.1906774,42.3971854 70.2536774,41.9422222 C70.291479,41.676831 70.575,39.4272663 70.5686935,36.0971781 C70.5938952,36.0908596 70.6190968,36.0908596 70.6442984,36.0845394 C72.0240887,43.6357159 72.7423629,53.4742453 71.7972661,66.0304218 L71.7976065,66.0300529 Z" id="Shape" stroke="#FFFFFF" stroke-width="1" fill="#476B87" fill-rule="nonzero"></path>
                    </g>
                </g>
                <g id="Group" mask="url(#mask-2)" stroke-width="2" stroke="#476B87" fill="#FFFFFF">
                    <g transform="translate(28.000000, 21.000000)" id="Rectangle-2">
                        <polygon transform="translate(31.593432, 20.172653) rotate(-6.000000) translate(-31.593432, -20.172653) " points="0.38892384 8.77978724 25.4664993 8.77978724 31.5846586 15.5311149 37.2236713 8.77978724 62.992144 8.77978724 59.5141874 31.5655181 2.99739135 31.5655181"></polygon>
                    </g>
                </g>
            </g>
            <g id="Group-15" transform="translate(85.000000, 411.000000)">
                <mask id="mask-4" fill="white">
                    <use xlink:href="#path-3"></use>
                </mask>
                <use id="Mask" fill="#FFFFFF" xlink:href="#path-3"></use>
                <path d="M98.62561,89.8418013 L98.6537563,89.8073956 C111.15691,88.0339834 117.161498,78.4565323 119.251095,74.1775387 L111.088858,71.9912004 L124.97787,63.9680874 L133,77.8620052 L124.918625,75.6976064 L124.793529,76.1761586 C124.580871,76.9831141 124.143032,78.3030042 123.430008,79.9670395 C122.250947,82.7163569 120.702964,85.4625516 118.735781,88.0365937 C113.040789,95.4807134 105.03171,100 94.5140732,100 L94.4859268,100 C83.9682904,100 75.9589705,95.4803931 70.2642192,88.0365937 C68.2971161,85.4624715 66.7490533,82.7162769 65.5699924,79.9670395 C64.8569515,78.3030843 64.419113,76.9831141 64.2064705,76.1761586 L64.0813749,75.6976064 L56,77.8620052 L64.0189272,63.9680874 L77.9111422,71.9912004 L69.7489054,74.1775387 C71.8380217,78.4563722 77.8422896,88.0338232 90.3462437,89.8073956 L90.3462437,59.9649384 L79.9943339,59.9649384 L79.9943339,53.0619384 L90.3462437,53.0619384 L90.3462437,44.71694 C85.9084529,43.0436165 82.7529217,38.7585375 82.7529217,33.735204 C82.7529217,27.2544184 88.0069363,22 94.4866874,22 C100.966439,22 106.220453,27.2546586 106.220453,33.735204 C106.220453,38.7583774 103.064922,43.0434564 98.6271311,44.71694 L98.6271311,53.0619384 L108.979041,53.0619384 L108.979041,59.9649384 L98.6271311,59.9649384 L98.62561,89.8418013 Z M94.4849261,38.5683441 C97.1525644,38.5683441 99.3167781,36.4039452 99.3167781,33.7358998 C99.3167781,31.0679345 97.1526445,28.9034556 94.4849261,28.9034556 C91.8172077,28.9034556 89.6530741,31.0678544 89.6530741,33.7358998 C89.6530741,36.4038651 91.8172077,38.5683441 94.4849261,38.5683441 L94.4849261,38.5683441 Z" id="Shape" fill="#476B87" fill-rule="nonzero" mask="url(#mask-4)"></path>
                <g id="Group-11" mask="url(#mask-4)">
                    <g transform="translate(2.000000, 7.000000)">
                        <g id="Group-2" transform="translate(17.033708, 23.908936)">
                            <path d="M24.0449438,104.670896 L19.2359551,117.889384" id="Line" stroke="#476B87" stroke-width="2.4000001" stroke-linecap="square"></path>
                            <path d="M43.2808989,102.267535 L50.494382,116.687703" id="Line-Copy-4" stroke="#476B87" stroke-width="2.4000001" stroke-linecap="square"></path>
                            <mask id="mask-6" fill="white">
                                <use xlink:href="#path-5"></use>
                            </mask>
                            <g id="Mask">
                                <use fill="#FFFFFF" fill-rule="evenodd" xlink:href="#path-5"></use>
                                <path stroke="#476B87" stroke-width="2.52000006" d="M33.0785314,71.6577962 C51.9063774,71.6577962 67.1699199,56.4109214 67.1699199,37.6022594 C67.1699199,28.579304 63.6398972,20.1096103 57.4490311,13.788236 C57.1166504,13.4488484 57.4067546,11.9455055 58.5562482,8.73845497 C58.5801294,8.67183994 58.5801294,8.67183994 58.6040564,8.60513044 C59.4140785,6.34687707 59.7038196,5.44460979 59.8940736,4.37782437 C60.206683,2.62497318 59.9315014,1.29334134 58.6689712,0.586987281 C56.1103296,-0.844508682 52.0900119,-0.463379311 44.8132528,1.22493687 C44.2458413,1.35658475 43.6600874,1.49533071 42.9184628,1.67309867 C36.5170384,3.20752468 34.8674175,3.54672266 33.0785314,3.54672266 C28.4541158,3.54672266 23.9563701,4.4676673 19.7881163,6.23200213 C19.3164482,6.4316494 18.301269,6.5084529 16.9812965,6.44058713 C16.2499965,6.40298767 15.4617277,6.32497946 14.6577796,6.21851703 C14.2463292,6.16403091 13.8576608,6.10564376 13.5045235,6.0473728 C13.2947541,6.01275887 13.1452786,5.98622884 13.0686639,5.9718131 L11.6534973,5.70553683 L11.5774312,7.14352621 C11.5687695,7.30727083 11.5486546,7.60357052 11.5149462,7.98717428 C11.4588082,8.62602735 11.3849011,9.26396267 11.291891,9.85328988 C11.1205144,10.93916 10.8679813,11.7652102 10.8105137,11.8147731 C3.35601234,18.2438909 -1.01285714,27.5703999 -1.01285714,37.6022594 C-1.01285714,56.4109214 14.2506854,71.6577962 33.0785314,71.6577962 Z"></path>
                            </g>
                            <path d="M33,59 C33,59 38.4641031,62.9650877 43.9282062,59" id="Path-12" stroke="#476B87" stroke-width="2" stroke-linecap="round" mask="url(#mask-6)"></path>
                            <path d="M64.5127149,16.7102073 C64.5127149,16.7102073 7.66171633,14.4534769 6.26404389,31.4035642 C6.01741149,34.394566 5.97407362,37.3899533 6.06996344,40.2950448 C6.09943123,41.1878049 2.98842744,41.9108264 3.04233285,42.7837839 C3.1141494,43.9467987 6.63882246,45.2572952 6.4671185,46.367503 C6.26404389,47.6805479 7.62918152,53.8811253 7.62918152,53.8811253 C7.62918152,53.8811253 -23.6296834,43.3192099 6.26404389,10.8806257 C21.1498071,-5.27236436 48.9435815,-13.4704375 59.7551501,-8.01399433 C70.5667187,-2.55755119 64.5127149,16.7102073 64.5127149,16.7102073 Z" id="Path-4" stroke="#476B87" stroke-width="2.52000006" fill="#FFFFFF" mask="url(#mask-6)"></path>
                            <ellipse id="Oval-2-Copy" fill="#476B87" mask="url(#mask-6)" cx="26.2091524" cy="46.204556" rx="4.20915237" ry="4.20455599"></ellipse>
                            <ellipse id="Oval-2-Copy-2" fill="#476B87" mask="url(#mask-6)" cx="47.2091524" cy="46.204556" rx="4.20915237" ry="4.20455599"></ellipse>
                        </g>
                        <g id="body" transform="translate(18.964512, 93.556662)">
                            <path d="M17.0760965,0.218781671 L0.499552545,35.9817057 L60.1237236,31.9364782 L47.507316,0.0614764673 C47.507316,0.0614764673 35.493001,2.59462815 30.3116381,2.62141167 C25.1302752,2.6481952 17.0760965,0.218781671 17.0760965,0.218781671 Z" id="Mask" stroke="#476B87" stroke-width="2.52000006" fill="#FFFFFF"></path>
                        </g>
                    </g>
                </g>
            </g>
            <g id="Group-6-Copy" transform="translate(587.000000, 324.000000)">
                <mask id="mask-8" fill="white">
                    <use xlink:href="#path-7"></use>
                </mask>
                <use id="Mask" fill="#FFFFFF" xlink:href="#path-7"></use>
                <polyline id="Rectangle-5-Copy" stroke="#476B87" stroke-width="2" mask="url(#mask-8)" points="88 110 100 140 37 140 47 111"></polyline>
                <path d="M60.9089825,77.7899118 C60.9089825,80.4132853 58.7847509,82.5469471 56.1604632,82.5469471 C53.5361754,82.5469471 51.4119439,80.4189059 51.4119439,77.7899118 C51.4119439,75.1665382 53.5361754,73.0328765 56.1604632,73.0328765 C58.7847509,73.0328765 60.9089825,75.1665382 60.9089825,77.7899118 Z M78.964807,73.0328765 C76.3461298,73.0328765 74.2162877,75.1609176 74.2162877,77.7899118 C74.2162877,80.4132853 76.3405193,82.5469471 78.964807,82.5469471 C81.5834842,82.5469471 83.7133263,80.4189059 83.7133263,77.7899118 C83.7077057,75.1665382 81.5834842,73.0328765 78.964807,73.0328765 Z M105.224947,69.4580382 C105.224947,74.0124441 103.207604,78.8764147 98.8243439,79.9797794 C99.6616502,84.6298794 101.055319,97.2969559 93.6993439,106.432574 C88.5124842,112.878524 80.1169789,116.138032 68.720993,116.138032 C68.3557189,116.138032 67.9735989,116.121143 67.6027144,116.115514 C67.2318298,116.121143 66.8496954,116.138032 66.4844358,116.138032 C55.0880182,116.138032 46.6922253,112.878524 41.5060849,106.432574 C34.15572,97.2958029 35.5494323,84.6290147 36.3866954,79.9797794 C32.0034358,78.8763859 29.9860919,74.0124441 29.9860919,69.4580382 C29.9860919,65.354 31.0594144,62.3534706 33.1722954,60.5351382 C34.1781909,59.6738047 35.2571095,59.2290721 36.2068709,58.9982676 C35.5943453,57.7259826 33.7005481,53.68955 32.711513,50.1373382 C32.4361512,49.1521644 31.525793,47.9248441 30.5648393,46.6300912 C28.2889796,43.55635 24.8441165,38.90625 29.0981902,33.9409647 C34.6165025,27.4893941 43.3043305,23.0533088 54.2232779,21.1111794 C59.9214147,20.0978594 64.7880428,19.9965159 67.3055867,20.0415526 C69.81752,20.0021451 74.6840042,20.0978493 80.3878954,21.1111794 C91.3065551,23.0534529 99.994527,27.4951588 105.512983,33.9409647 C109.766913,38.9118706 106.322194,43.55635 104.046334,46.6300912 C103.085395,47.9305224 102.175008,49.1577706 101.89966,50.1373382 C100.933111,53.5938559 99.1179902,57.5121265 98.4549411,58.8857118 C99.5170281,59.0602238 100.831934,59.4937153 102.040211,60.5295176 C104.153222,62.3534706 105.226415,65.3541441 105.226415,69.4580382 L105.224947,69.4580382 Z M94.7951228,58.7843971 C92.789,57.8949174 84.7137263,54.8718912 67.7653333,54.8718912 C47.9788772,54.8718912 40.1572281,58.9984118 40.0838596,59.0377559 C40.0670022,59.0490144 40.0445241,59.054645 40.0276652,59.0602743 C41.9382652,61.3740831 48.4738091,66.9303949 67.2933845,67.1219272 C86.8827529,66.919269 93.1766126,60.9124743 94.7950336,58.7844331 L94.7951228,58.7843971 Z M35.8184211,49.2703265 C36.4983881,51.7135529 37.6897474,54.4945912 38.4821263,56.2397118 C38.4989852,56.2284519 38.5102235,56.2171934 38.5270825,56.2059335 C38.8642607,56.0201514 46.9900579,51.6346658 67.7651175,51.6346658 C85.6238544,51.6346658 94.0482754,54.8716923 96.2781,55.9018452 C97.0704502,54.1340982 98.1494263,51.5558335 98.7900333,49.2701276 C99.2283593,47.7107746 100.307321,46.2525923 101.453739,44.7101011 C104.049974,41.2084746 105.516623,38.9116717 103.060939,36.0461805 C93.4571561,24.8207129 76.0584825,23.3739158 68.9115351,23.2782217 L68.9059159,23.3288877 C68.8665789,23.3232585 68.27653,23.2894802 67.2650528,23.2782217 C66.3097384,23.2951109 65.7421545,23.3288877 65.7028808,23.3288877 L65.6972617,23.2782217 C58.5435529,23.3795537 41.1346652,24.8431952 31.5421038,36.0461805 C29.0920301,38.9116717 30.5530687,41.2084746 33.1493038,44.7101011 C34.3013031,46.2525923 35.3802792,47.7162511 35.8186196,49.2701276 L35.8184211,49.2703265 Z M96.0366316,83.4247676 C94.2720491,86.4252971 91.6140982,90.2815971 88.5008316,92.6459912 C88.759333,92.6572511 89.0122095,92.6628803 89.2538505,92.6628803 C89.5685435,92.6628803 89.8663761,92.6572511 90.1305025,92.6403619 C90.692447,92.6065851 91.2431705,92.8824364 91.5578635,93.3609502 C91.8725565,93.833829 91.9118877,94.4474675 91.6646347,94.9597914 C90.3271859,97.7127266 86.7306803,102.3402 77.6270979,102.3402 C76.0142873,102.3402 74.2891224,102.193834 72.4964873,101.906723 C72.4290546,101.895463 72.3616189,101.878574 72.2941919,101.861686 L72.2098988,101.839168 C71.9064412,101.760353 69.2934321,101.034141 67.7535584,99.4352856 C66.6296549,100.628753 64.8707549,101.428144 63.7411689,101.8053 C63.6063005,101.912263 63.4545718,101.996703 63.2916075,102.05863 C63.1904555,102.098038 63.0893121,102.120556 62.98815,102.137445 C62.5666844,102.205001 62.1508437,102.278185 61.7406135,102.351374 C60.4593707,102.582192 59.1331574,102.818632 57.8519433,102.818632 C48.8494942,102.818632 45.1911433,98.0447348 43.8144065,95.201726 C43.5671549,94.689431 43.6064861,94.0814419 43.9211777,93.6028848 C44.2302458,93.1356266 44.7641089,92.8766616 45.3204429,92.8822966 C45.3710182,92.8766673 45.4272127,92.8654074 45.4834072,92.8541489 C45.7194233,92.8147414 45.9722998,92.7809631 46.2308012,92.7809631 C46.4555819,92.7809631 46.7084584,92.7753339 46.9725703,92.7640754 C43.7301177,90.3489519 40.9821107,86.3125048 39.2008405,83.2500048 C38.6388959,88.5587225 38.6557419,97.7467989 44.0336615,104.418005 C48.5404966,110.008184 56.0032159,112.851193 66.2139422,112.901778 C66.3319518,112.87926 66.4555833,112.862371 66.5848268,112.868 C66.9332405,112.87926 67.2647938,112.87926 67.6075826,112.884889 C67.9503714,112.87926 68.2875496,112.87926 68.6359489,112.868 C68.7595776,112.868 68.8719651,112.87926 68.9843626,112.901778 C79.217531,112.856742 86.6920468,110.002564 91.1934152,104.401143 C96.5150714,97.7920519 96.5881521,88.7514078 96.0374573,83.4248195 L96.0366316,83.4247676 Z M76.4587719,91.0246676 C76.402576,90.9852616 76.3520007,90.9402248 76.3014182,90.895188 C75.6045909,90.3040751 74.4300919,89.9325254 73.2444007,89.9325254 C71.2326674,89.9325254 70.5470323,90.3378563 69.9288674,91.142883 C69.4118646,91.8127995 68.6195144,92.1956192 67.74292,92.1956192 C66.8663256,92.1956192 66.0738604,91.8128139 65.5569726,91.142883 C64.9388221,90.3378563 64.2532446,89.9325254 62.2414393,89.9325254 C61.0557193,89.9325254 59.8812779,90.3040751 59.1675902,90.9064436 C59.122634,90.9458511 59.0720573,90.9852587 59.0214863,91.0246648 C57.1221074,92.8373765 55.076567,93.9970912 53.1265495,94.7457824 C53.0872125,94.7570409 53.0534961,94.77393 53.0141591,94.7851899 C51.2439661,95.4494858 49.5526082,95.7816338 48.1476749,95.9167441 C49.7885381,97.7575588 52.7107591,99.5872764 57.8582012,99.5872764 C58.8528612,99.5872764 59.9824328,99.3846182 61.1793451,99.1706899 C61.4378465,99.1256532 61.6963479,99.0806164 61.9604598,99.0299504 C62.1290489,98.9173585 62.2976381,98.8554384 62.438117,98.8160222 C63.3428647,98.5795828 64.9668819,97.8195784 65.5287977,97.065281 C66.0458005,96.3784739 66.8774819,95.9675081 67.7653837,95.9675081 C68.6420356,95.9675081 69.4400539,96.3559484 69.9457205,97.0371348 C70.5020546,97.7746136 72.0867837,98.4614207 73.0420118,98.7091878 C73.0532501,98.714817 73.070109,98.714817 73.0869679,98.7204462 C74.6829468,98.9737762 76.2114556,99.1032515 77.6218556,99.1032515 C82.6401118,99.1032515 85.5285258,97.4763074 87.1749995,95.7873927 C85.7588739,95.6522824 84.2022837,95.3370251 82.6175258,94.7796933 C82.3140682,94.7571749 82.033096,94.6502137 81.8026904,94.4813265 C79.9932237,93.7494827 78.1555605,92.6461324 76.4585921,91.0248089 L76.4587719,91.0246676 Z M101.999614,69.4574618 C101.999614,66.3837206 101.285941,64.1487441 99.9372421,62.9890294 C98.5604621,61.8068179 96.8970561,62.0207318 96.8802246,62.0263668 C96.6723042,62.0601436 96.4643839,62.0488851 96.2676989,61.9982191 C95.8406084,62.4316962 95.3348554,62.8876989 94.7335796,63.3662127 C94.8628289,63.5463597 94.9583604,63.754653 95.0089414,63.9854718 L96.8127975,72.7507071 C96.9926221,73.6232962 96.4306775,74.4789659 95.5596505,74.659113 C95.4528808,74.6816314 95.3404947,74.6928898 95.2337221,74.6928898 C94.4863281,74.6928898 93.811986,74.1693392 93.6545747,73.4037142 L91.9686835,65.2126436 C87.7540274,67.5995201 80.8588344,69.8796054 69.7553151,70.2848642 L69.7553151,70.3467887 C69.2888933,70.3524179 68.8224716,70.3580486 68.3672996,70.3580486 C68.0020256,70.3580486 67.6648618,70.3467887 67.3108232,70.3467887 C66.9567989,70.3524179 66.6139958,70.3580486 66.2543467,70.3580486 C65.7991604,70.3580486 65.332753,70.3524179 64.8663312,70.3467887 L64.8663312,70.2848642 C54.4196751,69.9076795 47.6981207,67.8641201 43.4283663,65.6403848 L41.8267768,73.4091907 C41.6694232,74.1748157 41.000706,74.6983663 40.2476295,74.6983663 C40.1408583,74.6983663 40.0284737,74.6871064 39.9217011,74.664588 C39.050674,74.4844409 38.4887295,73.6287424 38.668554,72.7561821 L40.4724102,63.9909468 C40.4836485,63.9459101 40.5005074,63.9008733 40.5117472,63.8558365 C39.6350952,63.2196868 38.9325998,62.6004421 38.370684,62.0318836 L38.3482059,62.0318836 C38.2470553,62.0206237 36.6005989,61.8292254 35.2463042,63.0226924 C33.9200908,64.1880133 33.2175954,66.4173836 33.2175954,69.4630218 C33.2175954,72.063913 34.2853073,76.9898542 38.3313744,76.9898542 C38.3650922,76.9898542 38.39881,77.0011141 38.4325264,77.0011141 C39.0900081,76.9448174 39.7362545,77.2882253 40.0341159,77.9243606 C42.512386,83.24994 48.0082562,91.5423253 52.3296562,91.5986753 C53.8525545,90.9681606 55.4259474,90.0280811 56.8815194,88.6150076 C56.9601919,88.5361926 57.0501085,88.4686417 57.1456313,88.4067144 C58.3931678,87.3427226 60.2757295,86.7065585 62.2481892,86.7065585 C64.8163716,86.7065585 66.4572348,87.303292 67.7496699,88.7331409 C69.0421625,87.2975994 70.683112,86.7065585 73.2511506,86.7065585 C75.2236102,86.7065585 77.1005471,87.3427082 78.4098138,88.4516791 C78.5053452,88.5079758 78.5390616,88.5417526 78.6177341,88.6149356 C80.0619411,90.0167103 81.646699,90.9512267 83.2144815,91.5705003 C88.0304709,91.3227909 93.7061657,81.425915 95.3470288,77.8849444 C95.6617218,77.2150279 96.3697846,76.8659894 97.0609727,76.9785741 C100.955253,76.8378331 102.000538,72.02453 102.000538,69.4573623 L101.999614,69.4574618 Z M65.4045965,48.81405 C66.2643881,48.8534575 66.8656351,48.8759759 67.2815333,48.8759759 C67.3883045,48.8759759 67.4782182,48.8759759 67.5625056,48.8703452 C67.6467987,48.8759759 67.7367053,48.8759759 67.8434779,48.8759759 C68.2649435,48.8759759 68.8662337,48.8478283 69.7260253,48.81405 C72.9010077,48.6733105 76.8909551,42.9199265 77.0651691,42.6721882 L77.1550814,40.2570647 C77.1550814,39.7954415 76.9640214,39.5252209 76.8010572,39.3788406 C76.4582684,39.0692182 76.0311779,39.0973644 75.9974716,39.102985 L74.5196014,39.102985 L74.0475691,39.4126074 C72.4853972,43.0211691 70.8219481,43.6460632 70.0914288,43.7361368 L70.1476232,35.6295191 L71.5581239,35.6238899 C71.6311773,35.6351498 72.2717973,35.7083342 72.8112709,35.2354496 C73.2608324,34.8470093 73.491238,34.2221296 73.491238,33.377629 C73.491238,32.5894928 73.2608324,32.0096355 72.8000355,31.6493702 C72.232466,31.2046375 71.5468885,31.2778205 71.3165548,31.3172222 L70.2151366,31.3172222 L70.2151366,28.3560369 C70.2151366,27.8887787 70.0465474,27.4778128 69.720619,27.1625555 C69.1586745,26.6108587 68.2595804,26.4757484 67.7537699,26.4419672 L67.7537699,26.4250795 C67.7256712,26.4250795 67.6469987,26.4250795 67.5458495,26.4307088 C67.467177,26.4250795 67.405362,26.4250795 67.3828853,26.4250795 L67.3828853,26.436338 C66.8771324,26.4701163 65.9780095,26.6108501 65.4160362,27.1569262 C65.0901078,27.4721836 64.9215187,27.8887701 64.9215187,28.3503933 L64.9215187,31.3115786 L63.8144755,31.3115786 C63.5896948,31.2721711 62.8984924,31.1933574 62.3309948,31.6437265 C61.8758085,32.0040206 61.6397924,32.5838636 61.6397924,33.3719854 C61.6397924,34.2164283 61.870198,34.8412648 62.3197594,35.2298059 C62.864858,35.7026848 63.4998545,35.6238812 63.4998545,35.6238812 L64.9833352,35.6295105 L65.0395311,43.7305075 C64.3033725,43.640434 62.6455626,43.0099193 61.0833907,39.4069781 L60.6113584,39.0973558 L59.1839974,39.1029864 C59.0997042,39.0917265 58.6726195,39.0692081 58.3298307,39.378842 C58.1668665,39.5252079 57.9758065,39.7954285 57.9758065,40.2570661 L58.0657188,42.6721897 C58.2343079,42.9198991 62.2297363,48.6790132 65.4048626,48.8140514 L65.4045965,48.81405 Z" id="Shape-Copy" stroke="#EFF7F9" fill="#476B87" fill-rule="nonzero" mask="url(#mask-8)"></path>
            </g>
            <g id="Group-21" transform="translate(409.000000, 0.000000)">
                <text id="Professionnel-en-por" font-family="Exo2-Italic, Exo 2" font-size="30" font-style="italic" font-weight="normal" line-spacing="28" letter-spacing="-0.00675000204" fill="#FFFFFF">
                    <tspan x="100" y="30">Professionnel</tspan>
                    <tspan x="100" y="58">en portage</tspan>
                    <tspan x="106.51" y="88.08" font-size="19">(c’est vous!)</tspan>
                </text>
                <g id="arrow-copy" transform="translate(39.520124, 46.486840) scale(-1, 1) rotate(87.000000) translate(-39.520124, -46.486840) translate(19.020124, 7.986840)" stroke-linecap="round">
                    <path d="M6.70218248,76.4310782 C6.70218248,76.4310782 -18.4234628,45.0756533 28.6218565,15" id="Path-10" stroke="#FFFFFF" stroke-width="4"></path>
                    <g id="Triangle-2" transform="translate(24.470063, 16.706692) rotate(47.000000) translate(-24.470063, -16.706692) ">
                        <use fill="#FFFFFF" fill-rule="evenodd" xlink:href="#path-9"></use>
                        <path stroke="#FFFFFF" stroke-width="2" d="M23.0725658,7.90335533 L10.7675603,24.3100293 C9.94644528,25.4048494 10.5886479,26.7066923 11.9630285,26.7066923 L36.9770976,26.7066923 C38.3495964,26.7066923 38.9960248,25.4079746 38.1725658,24.3100293 L25.8675603,7.90335533 C25.1394828,6.93258534 23.80231,6.93036313 23.0725658,7.90335533 L23.0725658,7.90335533 Z"></path>
                    </g>
                </g>
            </g>
            <g id="Group-20" transform="translate(590.000000, 478.000000)">
                <text id="Entreprise-Cliente" font-family="Exo2-Italic, Exo 2" font-size="30" font-style="italic" font-weight="normal" line-spacing="28" letter-spacing="-0.006750002" fill="#FFFFFF">
                    <tspan x="20.52375" y="109.92">Entreprise</tspan>
                    <tspan x="44.003625" y="137.92">Cliente</tspan>
                </text>
                <g id="arrow" transform="translate(107.500000, 38.500000) scale(-1, 1) translate(-107.500000, -38.500000) translate(87.000000, 0.000000)" stroke-linecap="round">
                    <path d="M6.70218248,76.4310782 C6.70218248,76.4310782 -18.4234628,45.0756533 28.6218565,15" id="Path-10" stroke="#FFFFFF" stroke-width="4"></path>
                    <g id="Triangle-2" transform="translate(24.470063, 16.706692) rotate(47.000000) translate(-24.470063, -16.706692) ">
                        <use fill="#FFFFFF" fill-rule="evenodd" xlink:href="#path-10"></use>
                        <path stroke="#FFFFFF" stroke-width="2" d="M23.0725658,7.90335533 L10.7675603,24.3100293 C9.94644528,25.4048494 10.5886479,26.7066923 11.9630285,26.7066923 L36.9770976,26.7066923 C38.3495964,26.7066923 38.9960248,25.4079746 38.1725658,24.3100293 L25.8675603,7.90335533 C25.1394828,6.93258534 23.80231,6.93036313 23.0725658,7.90335533 L23.0725658,7.90335533 Z"></path>
                    </g>
                </g>
            </g>
            <g id="Group-19" transform="translate(7.000000, 490.000000)">
                <text id="Société-de-portage-(" font-family="Exo2-Italic, Exo 2" font-size="30" font-style="italic" font-weight="normal" line-spacing="28" letter-spacing="-0.006750002" fill="#FFFFFF">
                    <tspan x="0" y="120">Société de </tspan>
                    <tspan x="0" y="148">portage</tspan>
                    <tspan x="6.51" y="178.08" font-size="19">(c’est nous!)</tspan>
                </text>
                <g id="arrow-copy" transform="translate(40.000000, 0.000000)" stroke-linecap="round">
                    <path d="M6.70218248,76.4310782 C6.70218248,76.4310782 -18.4234628,45.0756533 28.6218565,15" id="Path-10" stroke="#FFFFFF" stroke-width="4"></path>
                    <g id="Triangle-2" transform="translate(24.470063, 16.706692) rotate(47.000000) translate(-24.470063, -16.706692) ">
                        <use fill="#FFFFFF" fill-rule="evenodd" xlink:href="#path-11"></use>
                        <path stroke="#FFFFFF" stroke-width="2" d="M23.0725658,7.90335533 L10.7675603,24.3100293 C9.94644528,25.4048494 10.5886479,26.7066923 11.9630285,26.7066923 L36.9770976,26.7066923 C38.3495964,26.7066923 38.9960248,25.4079746 38.1725658,24.3100293 L25.8675603,7.90335533 C25.1394828,6.93258534 23.80231,6.93036313 23.0725658,7.90335533 L23.0725658,7.90335533 Z"></path>
                    </g>
                </g>
            </g>
        </g>
    </g>
</svg>
