<?xml version="1.0" encoding="UTF-8"?>
<svg width="92px" height="132px" viewBox="0 0 92 132" version="1.1" xmlns="http://www.w3.org/2000/svg" xmlns:xlink="http://www.w3.org/1999/xlink">
    <!-- Generator: Sketch 43.2 (39069) - http://www.bohemiancoding.com/sketch -->
    <title>shield</title>
    <desc>Created with Sketch.</desc>
    <defs>
        <path d="M37.8471188,42.1395259 C48.7264839,42.1395259 57.5459519,33.3503691 57.5459519,22.5083947 C57.5459519,17.1653938 55.404067,12.3209376 51.9292994,8.78124795 C50.6152873,7.44268501 54.4837394,1.93137028 52.8322623,1.00957907 C49.9890951,-0.577367848 41.3375885,2.87726358 37.8471188,2.87726358 C35.122704,2.87726358 32.5274661,3.42843487 30.167557,4.42499027 C28.9720227,4.92984712 25.7014033,4.31589537 25.7014033,4.31589537 C25.7014033,4.31589537 25.551022,7.15210079 24.980055,7.64337411 C20.7962183,11.2432443 18.1482857,16.5676534 18.1482857,22.5083947 C18.1482857,33.3503691 26.9677537,42.1395259 37.8471188,42.1395259 Z" id="path-1"></path>
    </defs>
    <g id="Page-1" stroke="none" stroke-width="1" fill="none" fill-rule="evenodd">
        <g id="proposition-3-1-square" transform="translate(-92.000000, -2833.000000)">
            <g id="shield" transform="translate(93.000000, 2811.000000)">
                <g id="Group-11" transform="translate(56.406610, 51.889739) rotate(23.000000) translate(-56.406610, -51.889739) translate(24.906610, 8.889739)">
                    <g id="Group-2" transform="translate(0.020225, 14.311687)">
                        <path d="M32.4269663,62.6551139 L29.541573,70.5675888" id="Line" stroke="#476B87" stroke-width="1.43999997" stroke-linecap="square"></path>
                        <path d="M43.9685393,61.2164821 L48.2966292,69.8482729" id="Line-Copy-4" stroke="#476B87" stroke-width="1.43999997" stroke-linecap="square"></path>
                        <mask id="mask-2" fill="white">
                            <use xlink:href="#path-1"></use>
                        </mask>
                        <g id="Mask">
                            <use fill="#FFFFFF" fill-rule="evenodd" xlink:href="#path-1"></use>
                            <path stroke="#476B87" stroke-width="3" d="M53.1521388,7.88729995 C53.1554825,7.79751941 53.1704903,7.67292329 53.2003613,7.51849255 C53.2902716,7.05366409 53.4559988,6.5348656 53.833741,5.48345071 C53.8480289,5.44368911 53.8480289,5.44368911 53.862366,5.4038104 C54.3646384,4.00681697 54.5442005,3.44896478 54.66878,2.75206708 C54.9062517,1.42365011 54.6780584,0.321991491 53.5633336,-0.300205152 C51.7909833,-1.28946315 49.3032828,-1.05418073 44.7205545,0.00658436428 C44.3780768,0.0858577521 44.025005,0.169292607 43.5784292,0.276085852 C39.8269946,1.17319658 38.8322208,1.37726358 37.8471188,1.37726358 C34.9728318,1.37726358 32.1760168,1.94858656 29.5840248,3.04314727 C29.4344364,3.10631627 28.9129545,3.14567642 28.2267996,3.1104809 C27.8098382,3.08909334 27.3559704,3.04428337 26.8918846,2.9829713 C26.4838706,2.92906708 26.1586347,2.87552608 25.9781455,2.84164514 L24.2942242,2.52554404 L24.2035073,4.23647395 C24.1987433,4.32632407 24.1872524,4.49519192 24.1678506,4.7154665 C24.1355654,5.0820115 24.0931271,5.44746173 24.0403158,5.78129701 C23.9890567,6.10532057 23.931136,6.37724676 23.8720174,6.57017321 C23.8642612,6.59548455 23.8568481,6.61822466 23.8500028,6.63811703 C19.3069579,10.6217686 16.6482857,16.3515612 16.6482857,22.5083947 C16.6482857,34.1799545 26.1404804,43.6395259 37.8471188,43.6395259 C49.5537572,43.6395259 59.0459519,34.1799545 59.0459519,22.5083947 C59.0459519,16.9837694 56.9076445,11.7919865 53.1521388,7.88729995 Z"></path>
                        </g>
                        <path d="M37.8,35.3169014 C37.8,35.3169014 41.0784619,37.6903694 44.3569237,35.3169014" id="Path-12" stroke="#476B87" stroke-width="1.19999993" stroke-linecap="round" mask="url(#mask-2)"></path>
                        <path d="M56.7076289,10.0025889 C56.7076289,10.0025889 22.5970298,8.65172913 21.7584263,18.7979082 C21.6104469,20.5882966 21.5844442,22.3813101 21.6419781,24.1202733 C21.6596587,24.654672 19.7930565,25.0874665 19.8253997,25.6100115 C19.8684896,26.3061823 21.9832935,27.0906345 21.8802711,27.7551954 C21.7584263,28.541173 22.5775089,32.2527863 22.5775089,32.2527863 C22.5775089,32.2527863 3.82218995,25.930513 21.7584263,6.51305062 C30.6898842,-3.15599275 47.3661489,-8.06329004 53.85309,-4.79710928 C60.3400312,-1.53092853 56.7076289,10.0025889 56.7076289,10.0025889 Z" id="Path-4" stroke="#476B87" stroke-width="3" fill="#FFFFFF" mask="url(#mask-2)"></path>
                        <ellipse id="Oval-2-Copy" fill="#476B87" mask="url(#mask-2)" cx="33.7254914" cy="27.6576568" rx="2.52549142" ry="2.51681169"></ellipse>
                        <ellipse id="Oval-2-Copy-2" fill="#476B87" mask="url(#mask-2)" cx="46.3254914" cy="27.6576568" rx="2.52549142" ry="2.51681169"></ellipse>
                    </g>
                    <g id="body" transform="translate(19.178707, 56.002227)" stroke="#476B87" stroke-width="1.51199994" fill="#FFFFFF">
                        <path d="M10.2456579,0.130960859 L0.299731527,21.538345 L30.7079691,21.1169463 L28.5043896,0.0367992938 C28.5043896,0.0367992938 21.2958006,1.55312248 18.1869829,1.56915488 C15.0781651,1.58518727 10.2456579,0.130960859 10.2456579,0.130960859 Z" id="Mask"></path>
                    </g>
                </g>
                <g id="Group-16" transform="translate(0.000000, 50.000000)" stroke-width="3.60000014" stroke="#476B87" fill="#FFFFFF" fill-rule="nonzero">
                    <g id="np_shield_1755647_000000">
                        <path d="M43.0981429,1.20701628 C43.022994,1.21169559 42.9478452,1.22573114 42.8726964,1.2444436 L5.29829167,14.4188622 C4.93663952,14.5451809 4.65482548,14.8399166 4.54680357,15.204836 C-0.290855952,30.9949756 0.000360714286,49.1648942 6.12492857,65.1334872 C12.2496167,81.1008826 24.2917024,94.8980919 42.8720952,101.736813 C43.1398174,101.83506 43.43101,101.83506 43.6987321,101.736813 C62.279125,94.897014 74.3221726,81.1008826 80.4458988,65.1334872 C86.5705869,49.1660919 86.8616833,30.9949756 82.0240238,15.204836 C81.9159971,14.8399166 81.6341879,14.5451809 81.2725357,14.4188622 L43.698131,1.2444436 C43.5055576,1.1836245 43.2989044,1.16958895 43.0969405,1.20701628 L43.0981429,1.20701628 Z" id="Shape"></path>
                    </g>
                </g>
            </g>
        </g>
    </g>
</svg>
