<?xml version="1.0" encoding="UTF-8"?>
<svg width="117px" height="88px" viewBox="0 0 117 88" version="1.1" xmlns="http://www.w3.org/2000/svg" xmlns:xlink="http://www.w3.org/1999/xlink">
    <!-- Generator: Sketch 43.2 (39069) - http://www.bohemiancoding.com/sketch -->
    <title>software</title>
    <desc>Created with Sketch.</desc>
    <defs></defs>
    <g id="Page-1" stroke="none" stroke-width="1" fill="none" fill-rule="evenodd">
        <g id="proposition-3-1-square" transform="translate(-760.000000, -2868.000000)">
            <g id="software" transform="translate(760.000000, 2868.000000)">
                <rect id="Rectangle-8" fill="#FFFFFF" x="4" y="4" width="112" height="80" rx="6"></rect>
                <path d="M57.3285375,13.2799672 C57.3285375,20.4781705 46.5083775,20.4781705 46.5083775,13.2799672 C46.5083775,6.08176393 57.3285375,6.08176393 57.3285375,13.2799672" id="Shape" fill="#476B87" fill-rule="nonzero"></path>
                <path d="M40.5097875,13.2799672 C40.5097875,20.4781705 29.6896275,20.4781705 29.6896275,13.2799672 C29.6896275,6.08176393 40.5097875,6.08176393 40.5097875,13.2799672" id="Shape" fill="#476B87" fill-rule="nonzero"></path>
                <path d="M24.8625,13.2799672 C24.8625,20.4781705 14.04234,20.4781705 14.04234,13.2799672 C14.04234,6.08176393 24.8625,6.08176393 24.8625,13.2799672" id="Shape" fill="#476B87" fill-rule="nonzero"></path>
                <path d="M106.322287,-5.42101086e-20 L10.6777125,-5.42101086e-20 C4.9763025,-5.42101086e-20 0.2916225,4.66768525 0.2916225,10.3613508 L0.2916225,77.1857607 C0.2916225,82.8735902 4.9704525,87.5471115 10.6777125,87.5471115 L106.471462,87.5471115 C112.172872,87.5471115 116.857552,82.8794262 116.857552,77.1857607 L116.85184,23.0533344 L116.85184,10.361059 C116.709017,4.66753934 112.17301,-0.000291803279 106.32301,-0.000291803279 L106.322287,-5.42101086e-20 Z M3.8039625,10.3613508 C3.8039625,6.56557377 6.8775525,3.64754098 10.5338025,3.64754098 L106.327552,3.64754098 C110.132392,3.64754098 113.057392,6.71380984 113.057392,10.3613508 L113.057392,22.9112262 L3.804255,22.9055273 L3.8039625,10.3613508 Z M113.491462,77.1799246 C113.491462,80.9757016 110.417872,84.0361344 106.618882,84.0361344 L10.6759575,84.0418333 C6.8711175,84.0418333 3.8033775,80.9755645 3.8033775,77.1856235 L3.8033775,26.5533776 L113.490877,26.5533776 L113.491462,77.1799246 Z" id="Shape" fill="#476B87" fill-rule="nonzero"></path>
            </g>
        </g>
    </g>
</svg>
