<?xml version="1.0" encoding="UTF-8"?>
<svg width="1439px" height="420px" viewBox="0 0 1439 420" version="1.1" xmlns="http://www.w3.org/2000/svg" xmlns:xlink="http://www.w3.org/1999/xlink">
    <!-- Generator: Sketch 43.2 (39069) - http://www.bohemiancoding.com/sketch -->
    <title>wave-banner</title>
    <desc>Created with Sketch.</desc>
    <defs></defs>
    <g id="Page-1" stroke="none" stroke-width="1" fill="none" fill-rule="evenodd">
        <g id="proposition-3-1-square" transform="translate(-1.000000, -102.000000)">
            <g id="wave-banner" transform="translate(0.000000, 102.000000)">
                <path d="M1470.62442,139.456283 L1470.62442,419.026227 C1314.06156,408.729227 38.2119351,414.533227 12.349,419.026227 L3,0 C86.3664385,6.949 207.850484,29.832 360.387236,93.548 C512.122083,156.929 532.498539,209.217461 822.793788,262.647163 C1113.08904,316.076866 1470.62442,139.456283 1470.62442,139.456283 Z" id="wave-blue-light" fill="#7AC2D0" opacity="0.119999997"></path>
                <path d="M1442.22257,406.485563 C1442.22257,406.485563 21.7166034,428.163138 1.97266847,431.588053 L0.789184368,363.886532 C50.1881883,367.998092 241.122909,412.644143 407.447853,393.273401 C573.772797,373.90266 684.375331,396.238877 752.227341,396.238877 C918.39958,396.238877 990.322072,353.709862 1061.30017,375.463576 C1132.27827,397.21729 1228.75401,383.60273 1320.24309,370.950392 C1345.45704,367.463468 1440.86055,328.570396 1440.86055,328.570396 L1442.22257,406.485563 Z" id="wave-white" fill="#FFFFFF" transform="translate(721.505879, 380.079224) rotate(1.000000) translate(-721.505879, -380.079224) "></path>
            </g>
        </g>
    </g>
</svg>